<?xml version="1.0" standalone="no"?>
<!DOCTYPE svg PUBLIC "-//W3C//DTD SVG 1.1//EN" "http://www.w3.org/Graphics/SVG/1.1/DTD/svg11.dtd" >
<svg>
<metadata>
Created by FontForge 20110222 at Tue Sep 16 19:10:45 2014
 By Orthosie Webhosting
Copyright 1990-1993 Bitstream Inc.  All rights reserved.
</metadata>
<defs>
<font id="Humnst777BTItalic" horiz-adv-x="1024" >
  <font-face 
    font-family="Humnst777BTItalic"
    font-weight="400"
    font-style="italic"
    font-stretch="normal"
    units-per-em="2048"
    panose-1="2 11 6 3 3 5 4 9 2 4"
    ascent="1638"
    descent="-410"
    x-height="1028"
    cap-height="1421"
    bbox="-285 -483 2519 1995"
    underline-thickness="115"
    underline-position="-156"
    slope="-12"
    unicode-range="U+0020-F002"
  />
<missing-glyph horiz-adv-x="1229" 
d="M102 -362v1806h1024v-1806h-1024zM217 -248h795v1577h-795v-1577z" />
    <glyph glyph-name=".notdef" horiz-adv-x="1229" 
d="M102 -362v1806h1024v-1806h-1024zM217 -248h795v1577h-795v-1577z" />
    <glyph glyph-name=".null" horiz-adv-x="0" 
 />
    <glyph glyph-name="nonmarkingreturn" horiz-adv-x="588" 
 />
    <glyph glyph-name="space" unicode=" " horiz-adv-x="588" 
 />
    <glyph glyph-name="exclam" unicode="!" horiz-adv-x="821" 
d="M201 213h215l-47 -213h-215zM455 1421h219l-248 -1040h-164z" />
    <glyph glyph-name="quotedbl" unicode="&#x22;" horiz-adv-x="614" 
d="M524 1436v-555h-139v555h139zM229 1436v-555h-139v555h139z" />
    <glyph glyph-name="numbersign" unicode="#" horiz-adv-x="1575" 
d="M969 858h-260l-93 -264h261zM924 1458l-162 -454h256l164 454h164l-160 -454h301l-51 -146h-303l-93 -262h322l-51 -147h-322l-162 -453h-165l161 453h-258l-162 -453h-165l159 453h-309l53 147h310l92 262h-330l51 146h332l162 454h166z" />
    <glyph glyph-name="dollar" unicode="$" horiz-adv-x="1176" 
d="M612 653l-108 -501q124 3 201 77t77 189q0 72 -40 127.5t-130 107.5zM672 1282q-118 -14 -185 -74.5t-67 -152.5q0 -61 36.5 -107t123.5 -92zM737 1604h97l-39 -180q73 -4 148.5 -18.5t154.5 -41.5l-56 -160q-67 32 -136.5 51t-143.5 25l-96 -455q159 -72 237 -167
t78 -216q0 -191 -140 -317.5t-358 -126.5h-10l-39 -191h-96l40 189q-94 1 -177.5 19t-157.5 53l51 170q73 -37 151.5 -58.5t164.5 -27.5l112 530q-147 71 -216.5 158.5t-69.5 201.5q0 167 130 275t334 108z" />
    <glyph glyph-name="percent" unicode="%" horiz-adv-x="1778" 
d="M1382 623q-77 0 -122.5 -70.5t-45.5 -192.5q0 -121 45.5 -191.5t122.5 -70.5q79 0 124.5 70t45.5 192q0 123 -45.5 193t-124.5 70zM1382 743q152 0 241 -103.5t89 -281.5q0 -176 -89.5 -280.5t-240.5 -104.5t-241 105t-90 280q0 177 90 281t241 104zM410 1327
q-78 0 -124 -70.5t-46 -191.5q0 -122 45.5 -192t124.5 -70q78 0 123 69.5t45 192.5q0 124 -44.5 193t-123.5 69zM1204 1448h137l-753 -1475h-139zM408 1448q151 0 241 -104t90 -281q0 -175 -90.5 -280t-240.5 -105q-151 0 -241.5 104.5t-90.5 280.5q0 177 90 281t242 104z
" />
    <glyph glyph-name="ampersand" unicode="&#x26;" horiz-adv-x="1409" 
d="M553 698q-158 -55 -236.5 -136t-78.5 -187q0 -115 71 -185.5t189 -70.5q94 0 183 36t173 109zM711 752l260 -377q68 76 116.5 177.5t77.5 231.5h168q-32 -167 -99.5 -300.5t-170.5 -233.5l176 -250h-209l-94 147q-98 -89 -213 -131.5t-258 -42.5q-188 0 -303 105.5
t-115 273.5q0 162 112 281t314 170q-66 83 -98.5 160t-32.5 149q0 150 115 244t301 94q157 0 253.5 -84.5t96.5 -220.5q0 -130 -98 -227t-299 -166zM639 852q164 64 231.5 129t67.5 156q0 75 -53.5 123.5t-139.5 48.5q-101 0 -166 -56.5t-65 -142.5q0 -50 30.5 -113.5
t94.5 -144.5z" />
    <glyph glyph-name="quotesingle" unicode="'" horiz-adv-x="317" 
d="M229 1436v-555h-139v555h139z" />
    <glyph glyph-name="parenleft" unicode="(" horiz-adv-x="629" 
d="M649 1548h160q-267 -310 -393.5 -586t-126.5 -548q0 -179 34 -350t103 -334h-139q-88 216 -129 394.5t-41 342.5q0 270 132 538.5t400 542.5z" />
    <glyph glyph-name="parenright" unicode=")" horiz-adv-x="629" 
d="M172 1548h139q89 -219 129.5 -396.5t40.5 -340.5q0 -270 -132 -538.5t-400 -542.5h-160q268 311 394 586.5t126 547.5q0 178 -34.5 350t-102.5 334z" />
    <glyph glyph-name="asterisk" unicode="*" 
d="M508 1518h164l-43 -342l307 153l53 -168l-336 -61l240 -244l-143 -106l-160 307l-160 -307l-143 106l239 246l-336 59l54 168l307 -155z" />
    <glyph glyph-name="plus" unicode="+" horiz-adv-x="1706" 
d="M924 1221v-541h528v-139h-528v-541h-142v541h-528v139h528v541h142z" />
    <glyph glyph-name="comma" unicode="," horiz-adv-x="588" 
d="M115 211h217l-260 -469h-168z" />
    <glyph glyph-name="hyphen" unicode="-" horiz-adv-x="678" 
d="M63 643h517l-31 -149h-516z" />
    <glyph glyph-name="period" unicode="." horiz-adv-x="588" 
d="M98 213h209l-45 -213h-209z" />
    <glyph glyph-name="slash" unicode="/" horiz-adv-x="569" 
d="M498 1485h116l-540 -1501h-117z" />
    <glyph glyph-name="zero" unicode="0" horiz-adv-x="1176" 
d="M909 997q0 146 -55.5 227t-155.5 81q-77 0 -148.5 -57t-131.5 -167q-30 -53 -56 -127.5t-55 -187.5q-21 -85 -32 -169.5t-11 -164.5q0 -149 56.5 -231t158.5 -82q81 0 152 60.5t131 178.5q67 134 107 308.5t40 330.5zM702 1448q197 0 299.5 -121t102.5 -354
q0 -194 -49 -385t-133 -328q-89 -144 -201.5 -215.5t-251.5 -71.5q-188 0 -292.5 126.5t-104.5 355.5q0 203 49.5 395t134.5 319q95 144 203.5 211.5t242.5 67.5z" />
    <glyph glyph-name="one" unicode="1" horiz-adv-x="1176" 
d="M741 1421h140l-299 -1421h-187l264 1210l-280 -188l-92 139z" />
    <glyph glyph-name="two" unicode="2" horiz-adv-x="1176" 
d="M739 549l-460 -387h651l-35 -162h-901l33 154l518 444q170 146 246.5 256t76.5 207q0 104 -66.5 162.5t-185.5 58.5q-68 0 -148.5 -27t-178.5 -84l18 193q95 41 184 61.5t175 20.5q191 0 299 -97.5t108 -269.5q0 -130 -79 -256.5t-255 -273.5z" />
    <glyph glyph-name="three" unicode="3" horiz-adv-x="1176" 
d="M711 745q111 -32 174 -114t63 -195q0 -195 -164 -328t-415 -133q-98 0 -195.5 20t-200.5 60l45 166q83 -39 163.5 -58.5t160.5 -19.5q178 0 290.5 85.5t112.5 217.5q0 114 -93.5 174t-270.5 60q-28 0 -41.5 -0.5t-25.5 -1.5l30 153h6q72 -4 107 -4q198 0 307.5 64.5
t109.5 179.5q0 100 -77.5 157.5t-212.5 57.5q-78 0 -157 -18t-161 -56l19 172q85 31 168.5 46.5t167.5 15.5q207 0 328.5 -91t121.5 -243q0 -144 -93.5 -239.5t-266.5 -127.5z" />
    <glyph glyph-name="four" unicode="4" horiz-adv-x="1176" 
d="M881 1262l-676 -785h504zM858 1421h232l-201 -944h205l-33 -151h-203l-70 -326h-188l70 326h-666l31 159z" />
    <glyph glyph-name="five" unicode="5" horiz-adv-x="1176" 
d="M362 1421h801l-30 -151h-627l-86 -389q53 10 93 15t73 5q187 0 303.5 -112.5t116.5 -294.5q0 -225 -172 -369.5t-443 -144.5q-91 0 -178 14t-172 43l37 174q74 -33 147.5 -49.5t151.5 -16.5q194 0 311 96t117 253q0 123 -87.5 193.5t-240.5 70.5q-55 0 -122.5 -11
t-149.5 -32z" />
    <glyph glyph-name="six" unicode="6" horiz-adv-x="1176" 
d="M856 487q0 125 -72 201t-188 76q-130 0 -219.5 -102t-89.5 -252q0 -127 71 -207t183 -80q130 0 222.5 105.5t92.5 258.5zM1151 1368l-51 -151q-66 38 -133.5 56.5t-139.5 18.5q-193 0 -327.5 -139.5t-184.5 -394.5q74 72 156 107.5t174 35.5q175 0 287 -111.5t112 -285.5
q0 -224 -145 -376.5t-358 -152.5q-211 0 -327 136.5t-116 386.5q0 193 53 371.5t148 310.5q90 124 222 192t286 68q82 0 167.5 -18t176.5 -54z" />
    <glyph glyph-name="seven" unicode="7" horiz-adv-x="1176" 
d="M295 1421h901l-33 -170l-811 -1251h-227l838 1266h-701z" />
    <glyph glyph-name="eight" unicode="8" horiz-adv-x="1176" 
d="M586 688q-162 -35 -250 -116t-88 -195q0 -108 78 -178t200 -70q136 0 219.5 73.5t83.5 190.5q0 92 -53.5 158t-189.5 137zM754 743q136 -61 205 -149.5t69 -202.5q0 -184 -141.5 -300t-372.5 -116q-211 0 -335 105.5t-124 284.5q0 149 104 254t290 143
q-100 61 -151.5 140t-51.5 171q0 159 131.5 267t333.5 108q187 0 301 -91t114 -239q0 -134 -95.5 -230t-276.5 -145zM610 809q169 61 250.5 133t81.5 160q0 85 -69.5 144t-172.5 59q-109 0 -185.5 -67.5t-76.5 -160.5q0 -74 44 -142.5t128 -125.5z" />
    <glyph glyph-name="nine" unicode="9" horiz-adv-x="1176" 
d="M27 57l53 154q67 -41 132.5 -60.5t133.5 -19.5q200 0 332 140t182 403q-77 -73 -160 -109.5t-172 -36.5q-167 0 -282 118t-115 292q0 213 148.5 359.5t365.5 146.5q202 0 317 -135t115 -373q0 -192 -52 -374.5t-142 -311.5q-93 -133 -227 -203t-294 -70q-94 0 -178 20.5
t-157 59.5zM889 1020q0 123 -73 200.5t-187 77.5q-127 0 -216 -102.5t-89 -249.5q0 -124 70.5 -199t189.5 -75q135 0 220 96.5t85 251.5z" />
    <glyph glyph-name="colon" unicode=":" horiz-adv-x="821" 
d="M213 215h209l-45 -215h-209zM381 1028h209l-45 -215h-209z" />
    <glyph glyph-name="semicolon" unicode=";" horiz-adv-x="821" 
d="M215 211h217l-260 -469h-168zM381 1028h207l-45 -213h-207z" />
    <glyph glyph-name="less" unicode="&#x3c;" horiz-adv-x="1706" 
d="M1442 1006l-969 -396l969 -393v-154l-1178 484v129l1178 483v-153z" />
    <glyph glyph-name="equal" unicode="=" horiz-adv-x="1706" 
d="M1452 481v-139h-1198v139h1198zM1452 879v-140h-1198v140h1198z" />
    <glyph glyph-name="greater" unicode="&#x3e;" horiz-adv-x="1706" 
d="M1442 676v-129l-1178 -484v154l971 393l-971 396v153z" />
    <glyph glyph-name="question" unicode="?" horiz-adv-x="1053" 
d="M240 211h211l-43 -211h-215zM467 387h-166q17 108 60.5 187t150.5 174q19 16 55 48q209 183 209 298q0 93 -70.5 146.5t-193.5 53.5q-61 0 -122.5 -14t-125.5 -43l33 162q80 24 147.5 35.5t126.5 11.5q178 0 285 -89.5t107 -236.5q0 -95 -56 -184t-202 -215
q-129 -112 -176.5 -182t-61.5 -152z" />
    <glyph glyph-name="at" unicode="@" horiz-adv-x="2048" 
d="M1284 854l57 115h132l-146 -576q-4 -16 -6 -31t-2 -28q0 -46 25.5 -70t74.5 -24q48 0 102.5 26.5t106.5 75.5q80 76 125 186.5t45 233.5q0 259 -190.5 420t-499.5 161q-133 0 -246 -28t-211 -86q-191 -114 -296 -299.5t-105 -409.5q0 -177 61.5 -308t192.5 -230
q100 -77 236.5 -118.5t287.5 -41.5q169 0 328.5 49t292.5 141l55 -82q-148 -111 -314.5 -167t-349.5 -56q-190 0 -348 47t-280 140q-154 118 -230 274t-76 354q0 165 52 313t151 269q146 178 351.5 270t455.5 92q163 0 310 -45t253 -127q130 -100 197.5 -231t67.5 -283
q0 -175 -63.5 -315t-184.5 -236q-68 -54 -149.5 -83t-166.5 -29q-99 0 -149.5 39.5t-50.5 117.5v19q-55 -89 -129 -131.5t-172 -42.5q-153 0 -233.5 85t-80.5 247q0 235 138 394t339 159q85 0 145.5 -37.5t96.5 -112.5zM1190 475l59 236q-17 88 -68.5 136t-129.5 48
q-138 0 -232 -130t-94 -319q0 -105 48.5 -162t137.5 -57q97 0 174.5 69t104.5 179z" />
    <glyph glyph-name="A" unicode="A" horiz-adv-x="1397" 
d="M852 1260l-434 -736h555zM764 1421h240l262 -1421h-201l-64 362h-673l-222 -362h-215z" />
    <glyph glyph-name="B" unicode="B" horiz-adv-x="1190" 
d="M362 670l-106 -510h211q161 0 259.5 83t98.5 216q0 101 -72.5 156t-207.5 55h-183zM489 1266l-94 -451h135q181 0 286.5 72.5t105.5 193.5q0 90 -64 137.5t-186 47.5h-183zM328 1421h344q221 0 335.5 -79.5t114.5 -233.5q0 -138 -92 -234t-256 -129q130 -29 191 -102.5
t61 -202.5q0 -200 -156.5 -320t-425.5 -120h-417z" />
    <glyph glyph-name="C" unicode="C" horiz-adv-x="1274" 
d="M1337 1372l-51 -170q-87 43 -175.5 63.5t-184.5 20.5q-141 0 -264.5 -55t-210.5 -156q-73 -83 -115.5 -203.5t-42.5 -242.5q0 -217 131 -350.5t346 -133.5q65 0 140 16t165 48l-18 -186q-83 -24 -162.5 -36t-157.5 -12q-299 0 -476 175.5t-177 470.5q0 186 76.5 352
t218.5 289q101 86 245.5 135t303.5 49q97 0 199 -18.5t210 -55.5z" />
    <glyph glyph-name="D" unicode="D" horiz-adv-x="1417" 
d="M498 1262l-230 -1096h168q151 0 258.5 29.5t184.5 91.5q109 87 175 236t66 308q0 209 -115.5 320t-332.5 111h-174zM328 1421h336q324 0 493.5 -154t169.5 -448q0 -215 -93 -399t-253 -285q-111 -71 -241.5 -103t-311.5 -32h-403z" />
    <glyph glyph-name="E" unicode="E" horiz-adv-x="1071" 
d="M324 1421h780l-35 -157h-577l-95 -441h547l-33 -157h-546l-109 -508h606l-33 -158h-806z" />
    <glyph glyph-name="F" unicode="F" horiz-adv-x="963" 
d="M324 1421h747l-35 -157h-544l-95 -447h523l-35 -162h-523l-139 -655h-200z" />
    <glyph glyph-name="G" unicode="G" horiz-adv-x="1473" 
d="M1407 1372l-55 -172q-89 44 -177.5 65t-181.5 21q-310 0 -498 -179.5t-188 -473.5q0 -222 129 -358t340 -136q59 0 117.5 8.5t116.5 24.5l94 455h-318l37 157h514l-159 -743q-93 -32 -192 -48t-208 -16q-150 0 -256 29.5t-188 93.5q-116 90 -178 225t-62 300
q0 177 73 340t204 280q109 98 267.5 150.5t348.5 52.5q104 0 209 -19t211 -57z" />
    <glyph glyph-name="H" unicode="H" horiz-adv-x="1415" 
d="M326 1421h204l-127 -596h656l127 596h205l-304 -1421h-204l141 664h-655l-142 -664h-202z" />
    <glyph glyph-name="I" unicode="I" horiz-adv-x="551" 
d="M324 1421h198l-303 -1421h-196z" />
    <glyph glyph-name="J" unicode="J" horiz-adv-x="737" 
d="M520 1421h203l-221 -1044q-44 -206 -152.5 -303t-296.5 -97q-44 0 -90.5 9t-95.5 26l47 168q41 -14 76 -21t63 -7q97 0 160.5 60.5t87.5 178.5z" />
    <glyph glyph-name="K" unicode="K" horiz-adv-x="1286" 
d="M326 1421h200l-127 -608l693 608h266l-787 -669l553 -752h-235l-514 711l-150 -711h-200z" />
    <glyph glyph-name="L" unicode="L" horiz-adv-x="965" 
d="M334 1421h205l-267 -1257h586l-33 -164h-792z" />
    <glyph glyph-name="M" unicode="M" horiz-adv-x="1837" 
d="M315 1421h303l197 -1179l692 1179h318l-303 -1421h-191l268 1266l-745 -1266h-174l-217 1262l-260 -1262h-191z" />
    <glyph glyph-name="N" unicode="N" horiz-adv-x="1462" 
d="M326 1421h249l422 -1192l248 1192h191l-303 -1421h-250l-418 1198l-252 -1198h-188z" />
    <glyph glyph-name="O" unicode="O" horiz-adv-x="1509" 
d="M1210 868q0 200 -98.5 314t-269.5 114q-101 0 -196.5 -49.5t-168.5 -140.5q-85 -107 -132.5 -249.5t-47.5 -291.5q0 -200 98.5 -316t268.5 -116q114 0 209.5 54t179.5 165q73 99 115 236.5t42 279.5zM852 1448q264 0 415.5 -154.5t151.5 -425.5q0 -203 -69.5 -382
t-198.5 -308q-100 -99 -228 -151t-276 -52q-255 0 -406 164.5t-151 442.5q0 183 68 355.5t190 297.5q100 103 230.5 158t273.5 55z" />
    <glyph glyph-name="P" unicode="P" horiz-adv-x="1100" 
d="M481 1266l-106 -510q2 0 6 -1q59 -3 88 -3q224 0 328 72t104 227q0 107 -72 161t-215 54h-133zM313 1421h340q216 0 333.5 -96t117.5 -272q0 -214 -159 -339.5t-433 -125.5q-54 0 -93 1t-79 3l-127 -592h-201z" />
    <glyph glyph-name="Q" unicode="Q" horiz-adv-x="1509" 
d="M903 16l246 -286h-225l-202 245q-10 -1 -22 -1.5t-34 -0.5q-272 0 -424 159.5t-152 445.5q0 194 71.5 369.5t203.5 301.5q98 97 225 149t266 52q260 0 411.5 -155.5t151.5 -422.5q0 -296 -133.5 -518t-382.5 -338zM1210 868q0 200 -98.5 314t-269.5 114
q-101 0 -196.5 -49.5t-168.5 -140.5q-85 -107 -132.5 -249.5t-47.5 -291.5q0 -200 98.5 -316t268.5 -116q114 0 209.5 54t179.5 165q73 99 115 236.5t42 279.5z" />
    <glyph glyph-name="R" unicode="R" horiz-adv-x="1190" 
d="M492 1266l-99 -473q2 -1 7 -1q67 -4 98 -4q201 0 308 73t107 208q0 95 -65 146t-186 51h-170zM326 1421h381q202 0 309.5 -84.5t107.5 -242.5q0 -161 -104 -261t-297 -124q66 -24 101.5 -69.5t58.5 -141.5l112 -498h-198l-111 487q-19 84 -70 115t-192 31h-66l-133 -633
h-200z" />
    <glyph glyph-name="S" unicode="S" horiz-adv-x="1073" 
d="M1057 1376l-56 -170q-65 40 -134 59t-146 19q-141 0 -223 -54t-82 -147q0 -61 33 -110t141 -125q202 -142 259.5 -227t57.5 -193q0 -192 -154 -321.5t-391 -129.5q-116 0 -209.5 20.5t-172.5 61.5l53 174q76 -45 157.5 -68.5t165.5 -23.5q148 0 238 65.5t90 170.5
q0 34 -9 65.5t-28 63.5q-38 63 -156 145q-42 29 -63 45q-120 91 -172.5 173t-52.5 178q0 180 139.5 288.5t376.5 108.5q93 0 177 -17t161 -51z" />
    <glyph glyph-name="T" unicode="T" horiz-adv-x="1055" 
d="M178 1421h1012l-33 -159h-407l-267 -1262h-202l268 1262h-404z" />
    <glyph glyph-name="U" unicode="U" horiz-adv-x="1421" 
d="M315 1421h203l-178 -833q-8 -37 -12 -74t-4 -74q0 -140 79.5 -225.5t210.5 -85.5q160 0 259 114t153 363l176 815h199l-174 -827q-67 -318 -221.5 -470.5t-411.5 -152.5q-210 0 -340.5 121.5t-130.5 315.5q0 53 7.5 114t25.5 148z" />
    <glyph glyph-name="V" unicode="V" horiz-adv-x="1296" 
d="M168 1421h197l167 -1251l695 1251h209l-824 -1421h-229z" />
    <glyph glyph-name="W" unicode="W" horiz-adv-x="1942" 
d="M158 1421h192l62 -1257l575 1257h246l55 -1261l572 1261h206l-692 -1421h-239l-60 1264l-573 -1264h-246z" />
    <glyph glyph-name="X" unicode="X" horiz-adv-x="1282" 
d="M205 1421h215l256 -538l477 538h238l-600 -667l342 -754h-215l-269 618l-530 -618h-250l670 756z" />
    <glyph glyph-name="Y" unicode="Y" horiz-adv-x="1284" 
d="M150 1421h219l264 -669l547 669h235l-706 -835l-121 -586h-203l125 592z" />
    <glyph glyph-name="Z" unicode="Z" horiz-adv-x="1085" 
d="M238 1421h942l-35 -164l-971 -1097h754l-37 -160h-979l37 176l950 1088h-696z" />
    <glyph glyph-name="bracketleft" unicode="[" horiz-adv-x="659" 
d="M371 1556h374l-26 -122h-203l-336 -1579h203l-25 -121h-374z" />
    <glyph glyph-name="backslash" unicode="\" horiz-adv-x="569" 
d="M-37 1485h115l524 -1501h-115z" />
    <glyph glyph-name="bracketright" unicode="]" horiz-adv-x="659" 
d="M276 1556h375l-389 -1822h-373l27 121h203l336 1581h-205z" />
    <glyph glyph-name="asciicircum" unicode="^" horiz-adv-x="2048" 
d="M1116 1458l510 -557h-180l-422 420l-424 -420h-180l510 557h186z" />
    <glyph glyph-name="underscore" unicode="_" 
d="M1024 -340v-143h-1024v143h1024z" />
    <glyph glyph-name="grave" unicode="`" 
d="M373 1520h180l209 -355h-105z" />
    <glyph glyph-name="a" unicode="a" horiz-adv-x="1079" 
d="M725 516q-19 1 -41.5 1.5t-65.5 0.5q-219 0 -321 -56.5t-102 -176.5q0 -74 50 -119t132 -45q139 0 231.5 104.5t116.5 290.5zM922 584l-64 -312q-21 -102 -31 -160t-16 -112h-164l23 162q-73 -92 -158 -136t-186 -44q-145 0 -234.5 80.5t-89.5 209.5q0 177 149 275
t420 98q30 0 71 -2.5t107 -7.5q3 17 5 35t2 35q0 102 -58 156t-168 54q-62 0 -137.5 -18t-169.5 -55l23 162q91 27 171 41t150 14q172 0 271.5 -85.5t99.5 -232.5q0 -35 -4 -73.5t-12 -83.5z" />
    <glyph glyph-name="b" unicode="b" horiz-adv-x="1231" 
d="M897 623q0 129 -61.5 202.5t-169.5 73.5q-144 0 -252.5 -140.5t-108.5 -334.5q0 -131 67 -211t177 -80q53 0 102.5 20.5t89.5 59.5q72 69 114 179t42 231zM346 1530h191l-140 -639q70 83 151 123.5t179 40.5q176 0 274.5 -115t98.5 -322q0 -140 -49.5 -271.5
t-135.5 -221.5q-69 -73 -154 -110.5t-179 -37.5q-127 0 -213 61t-115 171l-45 -209h-186z" />
    <glyph glyph-name="c" unicode="c" horiz-adv-x="940" 
d="M948 999l-47 -155q-71 26 -132.5 38.5t-115.5 12.5q-176 0 -293.5 -121.5t-117.5 -302.5q0 -149 83 -239.5t222 -90.5q48 0 106 12t127 35l-22 -172q-66 -17 -133.5 -25.5t-139.5 -8.5q-201 0 -324.5 131.5t-123.5 345.5q0 122 46.5 235.5t131.5 196.5q84 82 194 121
t261 39q77 0 145.5 -13t132.5 -39z" />
    <glyph glyph-name="d" unicode="d" horiz-adv-x="1202" 
d="M838 610q0 128 -68 206.5t-178 78.5q-144 0 -246 -143.5t-102 -354.5q0 -122 63 -195t168 -73q148 0 255.5 141t107.5 340zM1044 1530h189l-318 -1530h-174l35 172q-73 -98 -163.5 -147.5t-196.5 -49.5q-174 0 -273.5 112.5t-99.5 309.5q0 282 147.5 468t370.5 186
q123 0 208 -56t130 -166z" />
    <glyph glyph-name="e" unicode="e" horiz-adv-x="1085" 
d="M963 467h-736q-1 -15 -1.5 -27t-0.5 -24q0 -141 80.5 -217t229.5 -76q74 0 145 17t141 53l-16 -162q-82 -30 -159.5 -45t-153.5 -15q-212 0 -333.5 124.5t-121.5 340.5q0 120 39 230.5t112 199.5q77 94 182 142.5t230 48.5q178 0 281.5 -108t103.5 -296q0 -44 -5.5 -90
t-16.5 -96zM807 603q3 18 4.5 35t1.5 34q0 118 -60.5 186t-164.5 68q-115 0 -208.5 -89.5t-127.5 -234.5z" />
    <glyph glyph-name="f" unicode="f" horiz-adv-x="735" 
d="M895 1524l-43 -150q-32 9 -58 14t-46 5q-75 0 -124.5 -54.5t-72.5 -160.5l-33 -150h260l-30 -141h-261l-188 -887h-195l191 887h-219l30 141h218l41 195q33 159 132.5 242t256.5 83q28 0 64.5 -6t76.5 -18z" />
    <glyph glyph-name="g" unicode="g" horiz-adv-x="1202" 
d="M838 610q0 128 -68 206.5t-178 78.5q-144 0 -246 -143.5t-102 -354.5q0 -122 63 -195t168 -73q148 0 255.5 141t107.5 340zM940 1028h190l-217 -1046q-44 -214 -180.5 -321t-363.5 -107q-91 0 -183.5 19t-189.5 58l51 162q80 -44 158.5 -66t159.5 -22q180 0 279.5 114.5
t133.5 360.5q-73 -97 -164 -146.5t-198 -49.5q-174 0 -272.5 111.5t-98.5 307.5q0 146 45.5 275.5t128.5 220.5q68 74 153 113t179 39q132 0 217 -54.5t131 -167.5z" />
    <glyph glyph-name="h" unicode="h" horiz-adv-x="1202" 
d="M344 1530h193l-144 -662q70 88 157 133.5t185 45.5q149 0 235.5 -89.5t86.5 -244.5q0 -37 -5.5 -82t-17.5 -103l-110 -528h-197l121 563q7 34 10.5 65.5t3.5 59.5q0 96 -50.5 148.5t-141.5 52.5q-126 0 -218 -101t-130 -282l-107 -506h-195z" />
    <glyph glyph-name="i" unicode="i" horiz-adv-x="512" 
d="M248 1032h188l-219 -1032h-188zM496 1282h-205l45 213h205z" />
    <glyph glyph-name="j" unicode="j" horiz-adv-x="512" 
d="M487 1282h-204l47 213h205zM242 1032h192l-239 -1132q-37 -174 -114.5 -251t-215.5 -77q-42 0 -79 4.5t-71 13.5l41 146q26 -6 47.5 -9t36.5 -3q68 0 104 42t62 160z" />
    <glyph glyph-name="k" unicode="k" horiz-adv-x="1075" 
d="M350 1530h189l-193 -909l494 411h237l-563 -459l408 -573h-215l-377 543l-115 -543h-190z" />
    <glyph glyph-name="l" unicode="l" horiz-adv-x="512" 
d="M348 1530h193l-324 -1530h-192z" />
    <glyph glyph-name="m" unicode="m" horiz-adv-x="1761" 
d="M1616 635l-137 -635h-191l131 610q5 23 7.5 47.5t3.5 53.5q0 86 -43.5 134t-120.5 48q-116 0 -194 -94t-118 -281l-110 -518h-191l127 602q8 40 11.5 68.5t3.5 50.5q0 79 -43.5 125.5t-116.5 46.5q-116 0 -198 -92.5t-120 -265.5l-114 -535h-193l217 1034h170l-37 -168
q76 96 161 141.5t188 45.5q105 0 172 -55.5t92 -163.5q72 113 159 167t197 54q142 0 219.5 -80t77.5 -225q0 -39 -2.5 -66t-7.5 -49z" />
    <glyph glyph-name="n" unicode="n" horiz-adv-x="1202" 
d="M1032 528l-110 -528h-197l121 564q7 32 10.5 64t3.5 64q0 93 -50 145t-138 52q-128 0 -221 -100.5t-132 -282.5l-106 -506h-195l222 1038h176l-39 -184q73 98 165 148.5t195 50.5q146 0 233 -90t87 -242q0 -38 -6 -86t-19 -107z" />
    <glyph glyph-name="o" unicode="o" horiz-adv-x="1200" 
d="M881 604q0 140 -72 222.5t-193 82.5q-57 0 -111.5 -21.5t-101.5 -64.5q-75 -69 -117 -170.5t-42 -214.5q0 -143 73 -228t195 -85q153 0 261 138.5t108 340.5zM629 1055q212 0 332 -122t120 -337q0 -129 -44.5 -244t-129.5 -205q-80 -85 -186 -129.5t-227 -44.5
q-206 0 -328.5 124t-122.5 333q0 131 42 242t130 211q69 78 181 125t233 47z" />
    <glyph glyph-name="p" unicode="p" horiz-adv-x="1231" 
d="M260 199l-133 -627h-195l312 1466h174l-35 -180q73 98 164 147.5t196 49.5q174 0 273.5 -113t99.5 -311q0 -282 -147.5 -468t-370.5 -186q-122 0 -207.5 56t-130.5 166zM915 623q0 129 -62 202.5t-171 73.5q-144 0 -252 -140.5t-108 -334.5q0 -131 67 -211t176 -80
q54 0 103 20.5t90 59.5q72 69 114.5 179.5t42.5 230.5z" />
    <glyph glyph-name="q" unicode="q" horiz-adv-x="1202" 
d="M844 610q0 130 -67 208.5t-177 78.5q-144 0 -246 -144t-102 -356q0 -122 62 -194t167 -72q148 0 255.5 140.5t107.5 338.5zM942 1030h184l-309 -1456h-186l123 565q-69 -83 -151.5 -123.5t-182.5 -40.5q-174 0 -271.5 115t-97.5 322q0 141 49 273.5t133 221.5
q69 72 153.5 109t180.5 37q128 0 213.5 -60.5t114.5 -171.5z" />
    <glyph glyph-name="r" unicode="r" horiz-adv-x="745" 
d="M805 1040l-43 -178q-25 8 -50.5 12.5t-52.5 4.5q-132 0 -210.5 -86t-120.5 -281l-111 -512h-199l218 1032h176l-35 -164q76 99 153 144t168 45q22 0 49 -4.5t58 -12.5z" />
    <glyph glyph-name="s" unicode="s" horiz-adv-x="854" 
d="M811 1001l-51 -153q-58 32 -115.5 47.5t-116.5 15.5q-102 0 -162.5 -37t-60.5 -98q0 -73 156 -164q55 -32 86 -51q85 -54 125.5 -117t40.5 -141q0 -152 -117 -241t-320 -89q-86 0 -167.5 15t-157.5 45l51 162q61 -36 128 -53t142 -17q116 0 180 45t64 127q0 45 -30 81.5
t-138 102.5l-6 4q-225 138 -225 269q0 134 109 218.5t286 84.5q72 0 146 -14t153 -42z" />
    <glyph glyph-name="t" unicode="t" horiz-adv-x="739" 
d="M555 1350l-68 -318h263l-33 -149h-260l-111 -515q-7 -30 -10.5 -57.5t-3.5 -48.5q0 -57 32 -90t89 -33q17 0 42.5 5t67.5 15l-33 -153q-37 -9 -68 -13.5t-59 -4.5q-130 0 -198 62.5t-68 180.5q0 27 3 56t10 61l114 535h-209l31 149h209l53 252z" />
    <glyph glyph-name="u" unicode="u" horiz-adv-x="1202" 
d="M211 1028h195l-121 -563q-7 -31 -11 -63.5t-4 -65.5q0 -93 50 -145t139 -52q127 0 220 101.5t132 283.5l107 504h196l-221 -1028h-178l39 174q-76 -98 -167 -148.5t-194 -50.5q-145 0 -231 90t-86 242q0 46 5.5 94t16.5 98z" />
    <glyph glyph-name="v" unicode="v" horiz-adv-x="997" 
d="M80 1032h192l107 -866l457 866h202l-589 -1042h-220z" />
    <glyph glyph-name="w" unicode="w" horiz-adv-x="1671" 
d="M74 1032h188l62 -874l454 874h228l75 -876l430 876h203l-555 -1042h-223l-76 889l-454 -889h-232z" />
    <glyph glyph-name="x" unicode="x" horiz-adv-x="999" 
d="M123 1032h209l160 -366l309 366h229l-434 -485l242 -547h-209l-170 410l-348 -410h-224l469 547z" />
    <glyph glyph-name="y" unicode="y" horiz-adv-x="993" 
d="M82 1032h188l109 -854l446 854h207l-676 -1208q-83 -149 -167.5 -209.5t-200.5 -60.5q-37 0 -77 7t-87 21l47 150q27 -10 51 -14.5t45 -4.5q63 0 117 34.5t90 96.5l74 131z" />
    <glyph glyph-name="z" unicode="z" horiz-adv-x="946" 
d="M180 1032h785l-35 -162l-729 -723h587l-30 -147h-824l33 160l731 725h-548z" />
    <glyph glyph-name="braceleft" unicode="{" 
d="M866 1327h-41q-120 0 -161 -44.5t-41 -184.5v-242q0 -160 -44.5 -228t-156.5 -98q113 -28 157 -96t44 -229v-242q0 -141 41.5 -185t162.5 -44h39v-148h-43q-108 0 -169 11.5t-103 37.5q-55 34 -77.5 97t-22.5 211v245q0 149 -54.5 210t-185.5 61q-7 0 -21.5 -1t-21.5 -1
v149q8 0 23 -1t22 -1q130 0 184 60.5t54 207.5v246q0 148 22.5 210.5t77.5 96.5q45 28 108.5 40t169.5 12h37v-150z" />
    <glyph glyph-name="bar" unicode="|" 
d="M588 1565v-2048h-150v2048h150z" />
    <glyph glyph-name="braceright" unicode="}" 
d="M575 1118v-246q0 -147 54 -207.5t184 -60.5q7 0 22 1t23 1v-149q-7 0 -22 1t-21 1q-132 0 -186 -60.5t-54 -210.5v-245q0 -148 -22.5 -211t-77.5 -97q-42 -26 -103 -37.5t-169 -11.5h-43v148h39q120 0 162 45t42 186v240q0 160 44.5 228t156.5 97q-112 30 -156.5 98
t-44.5 228v242q0 140 -42 184.5t-162 44.5h-39v150h37q107 0 171 -12.5t107 -39.5q55 -34 77.5 -96.5t22.5 -210.5z" />
    <glyph glyph-name="asciitilde" unicode="~" horiz-adv-x="1706" 
d="M1530 614q-104 -72 -199 -106.5t-190 -34.5q-93 0 -256 58q-22 8 -34 12q-5 2 -15 5q-176 60 -273 60q-84 0 -175 -37t-210 -120v155q106 72 202 108t185 36q62 0 127.5 -13.5t163.5 -48.5q16 -5 47 -17q159 -57 240 -57q88 0 179.5 37t207.5 119v-156z" />
    <glyph glyph-name="nonbreakingspace" unicode="&#xa0;" horiz-adv-x="1176" 
 />
    <glyph glyph-name="exclamdown" unicode="&#xa1;" horiz-adv-x="821" 
d="M395 1040h164l-192 -1040h-220zM455 1421h211l-45 -211h-215z" />
    <glyph glyph-name="cent" unicode="&#xa2;" horiz-adv-x="1176" 
d="M727 903q-180 -9 -291.5 -128.5t-111.5 -301.5q0 -112 46 -189.5t132 -111.5zM848 1298l98 -2l-75 -245q46 -8 85.5 -18t75.5 -23l-47 -158q-46 17 -86 27.5t-78 15.5l-227 -743q7 -2 14.5 -2h22.5q47 0 104 11.5t127 35.5l-22 -172q-69 -17 -132.5 -25t-123.5 -8h-37
l-86 -275h-99l87 283q-151 38 -239.5 165t-88.5 302q0 260 170.5 426t441.5 166h39z" />
    <glyph glyph-name="sterling" unicode="&#xa3;" horiz-adv-x="1176" 
d="M1227 1391l-51 -156q-63 25 -116 37t-99 12q-161 0 -249.5 -106.5t-129.5 -352.5h331l-26 -123h-332l-115 -542h500l-35 -160h-901l33 160h205l114 542h-178l27 123h178q46 314 183 467.5t370 153.5q65 0 136 -13.5t155 -41.5z" />
    <glyph glyph-name="currency" unicode="&#xa4;" horiz-adv-x="1241" 
d="M926 887q0 125 -89 214t-214 89q-126 0 -215 -89t-89 -214q0 -126 89 -215.5t215 -89.5q125 0 214 89.5t89 215.5zM367 1219q57 43 120 64.5t134 21.5t134.5 -21.5t121.5 -64.5l204 204l82 -80l-205 -206q41 -55 61.5 -118t20.5 -134q0 -73 -20 -135.5t-62 -116.5
l205 -205l-82 -82l-204 205q-59 -44 -122 -65t-132 -21q-72 0 -135.5 21.5t-120.5 64.5l-205 -205l-82 82l207 205q-41 51 -62.5 116t-21.5 136q0 70 21 133t63 119l-207 206l82 80z" />
    <glyph glyph-name="yen" unicode="&#xa5;" horiz-adv-x="1169" 
d="M127 1421h197l239 -678l492 678h217l-350 -460h229l-23 -109h-288l-138 -186h388l-25 -111h-434l-115 -555h-203l117 555h-430l25 111h383l-72 186h-273l23 109h213z" />
    <glyph glyph-name="brokenbar" unicode="&#xa6;" 
d="M588 408v-758h-150v758h150zM588 1432v-758h-150v758h150z" />
    <glyph glyph-name="section" unicode="&#xa7;" 
d="M465 856q-96 -51 -144.5 -107.5t-48.5 -117.5q0 -69 61 -122t222 -120q90 64 134 122.5t44 115.5q0 88 -210 198q-37 20 -58 31zM989 1380l-49 -139q-82 38 -150.5 56t-130.5 18q-111 0 -177 -44.5t-66 -119.5q0 -55 33.5 -95.5t140.5 -97.5q12 -6 36 -19
q283 -151 283 -304q0 -94 -67 -176.5t-193 -143.5q65 -45 98 -104t33 -131q0 -148 -125.5 -241t-330.5 -93q-92 0 -189 22t-207 68l62 154q82 -50 164 -74.5t165 -24.5q129 0 203 49.5t74 133.5q0 59 -37 102.5t-162 108.5q-188 99 -244.5 165.5t-56.5 157.5q0 106 67 187
t197 131q-62 44 -93 99.5t-31 123.5q0 134 110.5 219.5t288.5 85.5q90 0 178 -18.5t176 -55.5z" />
    <glyph glyph-name="dieresis" unicode="&#xa8;" 
d="M760 1427h170l-41 -192h-170zM426 1427h172l-41 -192h-172z" />
    <glyph glyph-name="copyright" unicode="&#xa9;" horiz-adv-x="1706" 
d="M1053 907q-13 77 -66 118.5t-139 41.5q-105 0 -165 -90.5t-60 -249.5q0 -157 62 -244.5t173 -87.5q82 0 136.5 47t68.5 129h145q-9 -130 -107.5 -211t-248.5 -81q-182 0 -285.5 120t-103.5 334q0 200 109 322.5t286 122.5q142 0 236.5 -75t105.5 -196h-147zM1493 727
q0 130 -47.5 246.5t-136.5 206.5q-93 92 -209 140t-246 48q-129 0 -243.5 -47t-204.5 -137q-93 -93 -143 -211.5t-50 -245.5q0 -126 49 -242t141 -209q92 -91 207.5 -139.5t243.5 -48.5q125 0 242 49t213 142q90 88 137 202.5t47 245.5zM852 1464q152 0 285.5 -54.5
t238.5 -160.5q104 -103 159.5 -238.5t55.5 -283.5q0 -149 -54.5 -281.5t-158.5 -234.5q-110 -107 -245.5 -164t-280.5 -57t-278.5 56t-239.5 163q-106 105 -161.5 238.5t-55.5 279.5q0 147 56 281.5t163 242.5q104 104 236 158.5t280 54.5z" />
    <glyph glyph-name="ordfeminine" unicode="&#xaa;" horiz-adv-x="809" 
d="M544 1061q-15 1 -31.5 1.5t-47.5 0.5q-165 0 -242.5 -40t-77.5 -124q0 -51 38 -83t100 -32q104 0 174 74t87 203zM692 1110l-49 -219q-11 -48 -19.5 -95.5t-15.5 -95.5h-123l17 113q-55 -64 -118 -94.5t-140 -30.5q-109 0 -175.5 56t-66.5 147q0 124 112 193t314 69
q28 0 105 -6q19 -1 30 -2q2 17 3 28.5t1 20.5q0 72 -43.5 109.5t-126.5 37.5q-47 0 -104 -12.5t-125 -38.5l16 113q66 19 126.5 29t115.5 10q129 0 204 -60.5t75 -162.5q-1 -19 -3 -41t-10 -68z" />
    <glyph glyph-name="guillemotleft" unicode="&#xab;" horiz-adv-x="1114" 
d="M862 936h195l-395 -424l303 -416h-179l-303 422zM455 936h196l-387 -418l305 -422h-178l-307 432z" />
    <glyph glyph-name="logicalnot" unicode="&#xac;" horiz-adv-x="1706" 
d="M1452 860v-502h-137v363h-1061v139h1198z" />
    <glyph glyph-name="sfthyphen" unicode="&#xad;" horiz-adv-x="678" 
d="M63 643h517l-31 -149h-516z" />
    <glyph glyph-name="registered" unicode="&#xae;" horiz-adv-x="1706" 
d="M844 1057h-129v-277h133q113 0 162 31.5t49 101.5q0 76 -51 110t-164 34zM872 1159q174 0 261.5 -57.5t87.5 -171.5q0 -89 -50 -148t-141 -77l187 -381h-177l-170 356h-155v-356h-158v835h315zM1493 721q0 134 -46.5 251t-135.5 206q-92 93 -208.5 141.5t-248.5 48.5
q-130 0 -245 -47t-201 -135q-94 -95 -144.5 -214t-50.5 -245q0 -125 48.5 -240.5t139.5 -207.5q90 -92 206.5 -141.5t240.5 -49.5q130 0 246.5 48t212.5 140q90 88 138 202.5t48 242.5zM852 1464q151 0 286 -56t240 -163q103 -104 158 -238t55 -280q0 -151 -55 -283.5
t-160 -234.5q-109 -106 -244.5 -162.5t-279.5 -56.5q-147 0 -280.5 56.5t-239.5 164.5q-105 106 -160 238.5t-55 277.5q0 146 57.5 282.5t165.5 245.5q101 103 231.5 156t280.5 53z" />
    <glyph glyph-name="macron" unicode="&#xaf;" 
d="M403 1395h539l-29 -129h-538z" />
    <glyph glyph-name="degree" unicode="&#xb0;" horiz-adv-x="674" 
d="M530 1169q0 81 -55.5 137t-136.5 56t-138 -56t-57 -137t57 -138.5t138 -57.5t136.5 57.5t55.5 138.5zM338 1456q118 0 202.5 -84.5t84.5 -204.5q0 -119 -84 -202.5t-205 -83.5t-204 83t-83 203t84.5 204.5t204.5 84.5z" />
    <glyph glyph-name="plusminus" unicode="&#xb1;" horiz-adv-x="1706" 
d="M1452 170v-141h-1198v141h1198zM924 1192v-340h528v-139h-528v-340h-142v340h-528v139h528v340h142z" />
    <glyph glyph-name="twosuperior" unicode="&#xb2;" horiz-adv-x="776" 
d="M487 899l-303 -233h430l-24 -97h-594l22 93l342 266q112 87 162.5 153.5t50.5 124.5q0 61 -43.5 95t-121.5 34q-49 0 -103 -15.5t-115 -47.5l13 117q63 24 122 36.5t115 12.5q126 0 197.5 -59t71.5 -162q0 -78 -52.5 -153.5t-169.5 -164.5z" />
    <glyph glyph-name="threesuperior" unicode="&#xb3;" horiz-adv-x="776" 
d="M469 1016q74 -19 116 -68t42 -117q0 -117 -108.5 -196.5t-274.5 -79.5q-63 0 -128 11.5t-134 35.5l30 100q56 -23 108.5 -35t104.5 -12q118 0 192.5 51.5t74.5 131.5q0 68 -61.5 103.5t-178.5 35.5h-45l21 92q29 -2 44.5 -3t28.5 -1q131 0 204 39t73 108q0 60 -51.5 94.5
t-141.5 34.5q-53 0 -104.5 -11t-104.5 -34l12 105q56 18 111 27.5t111 9.5q136 0 216.5 -55t80.5 -146q0 -87 -62 -144t-176 -77z" />
    <glyph glyph-name="acute" unicode="&#xb4;" 
d="M727 1520h191l-324 -355h-109z" />
    <glyph glyph-name="mu" unicode="&#xb5;" horiz-adv-x="1151" 
d="M385 1071l-129 -600q-7 -32 -10.5 -64.5t-3.5 -68.5q0 -99 52 -153t148 -54q132 0 208.5 92.5t123.5 311.5l115 536h178l-156 -732q-1 -6 -4 -20q-18 -87 -18 -112q0 -37 16.5 -52.5t55.5 -15.5q12 0 18.5 0.5t13.5 1.5l-30 -143q-25 -5 -51 -7.5t-58 -2.5q-63 0 -97 29
t-52 100q-45 -66 -112.5 -98.5t-158.5 -32.5q-82 0 -143 27.5t-113 88.5l-110 -530h-181l318 1499h180z" />
    <glyph glyph-name="paragraph" unicode="&#xb6;" 
d="M958 1393h-120v-1393h-111v1393h-176v-1393h-113v782q-170 8 -271 102.5t-101 245.5q0 157 107.5 253t285.5 96h499v-86z" />
    <glyph glyph-name="glyph121" unicode="&#xb7;" horiz-adv-x="588" 
d="M295 825q49 0 82 -33t33 -81t-33.5 -80.5t-81.5 -32.5q-47 0 -80 33.5t-33 79.5q0 48 33 81t80 33z" />
    <glyph glyph-name="cedilla" unicode="&#xb8;" 
d="M362 0h78l-34 -104h14q103 0 158 -42t55 -120q0 -95 -65 -150t-177 -55q-59 0 -125 12t-147 37l33 92q63 -20 118.5 -30.5t100.5 -10.5q59 0 94 26t35 69q0 48 -37 68t-129 20h-35z" />
    <glyph glyph-name="onesuperior" unicode="&#xb9;" horiz-adv-x="776" 
d="M489 1421h93l-199 -852h-123l174 727l-184 -114l-62 84z" />
    <glyph glyph-name="ordmasculine" unicode="&#xba;" horiz-adv-x="901" 
d="M662 1124q0 97 -54.5 155t-144.5 58q-44 0 -84.5 -15.5t-75.5 -45.5q-57 -48 -89 -118.5t-32 -149.5q0 -101 55 -160.5t148 -59.5q114 0 195.5 97.5t81.5 238.5zM471 1440q160 0 250 -85.5t90 -236.5q0 -91 -33.5 -172t-97.5 -143q-61 -59 -140 -90t-169 -31
q-155 0 -246.5 86.5t-91.5 232.5q0 93 31.5 170t97.5 148q51 55 135 88t174 33z" />
    <glyph glyph-name="guillemotright" unicode="&#xbb;" horiz-adv-x="1114" 
d="M473 936h178l307 -434l-370 -408h-197l387 418zM78 936h180l301 -424l-379 -418h-194l395 424z" />
    <glyph glyph-name="onequarter" unicode="&#xbc;" horiz-adv-x="1823" 
d="M1638 707l-426 -441h318zM1624 797h145l-127 -531h130l-21 -84h-127l-43 -182h-119l43 182h-420l21 90zM1221 1448h137l-754 -1475h-139zM467 1421h88l-188 -796h-119l168 678l-178 -107l-58 80z" />
    <glyph glyph-name="onehalf" unicode="&#xbd;" horiz-adv-x="1823" 
d="M1548 307l-288 -217h409l-22 -90h-568l21 86l327 250q107 80 155 141.5t48 116.5q0 59 -41.5 92t-115.5 33q-44 0 -95 -15.5t-112 -48.5l12 109q59 23 115 34t110 11q121 0 188.5 -54t67.5 -151q0 -73 -50.5 -144.5t-160.5 -152.5zM1221 1448h137l-754 -1475h-139z
M467 1421h88l-188 -796h-119l168 678l-178 -107l-58 80z" />
    <glyph glyph-name="threequarters" unicode="&#xbe;" horiz-adv-x="1823" 
d="M1638 707l-426 -441h318zM1624 797h145l-127 -531h130l-21 -84h-127l-43 -182h-119l43 182h-420l21 90zM1221 1448h137l-754 -1475h-139zM449 1042q70 -18 109.5 -64t39.5 -110q0 -108 -104 -183t-263 -75q-58 0 -119.5 11.5t-127.5 33.5l28 93q51 -22 101.5 -32.5
t101.5 -10.5q112 0 183 48t71 121q0 64 -58.5 98t-170.5 34q-18 0 -26.5 -0.5t-16.5 -1.5l20 86q13 0 36 -1.5t34 -1.5q125 0 194.5 36.5t69.5 101.5q0 55 -49 88t-133 33q-49 0 -98.5 -10.5t-102.5 -30.5l12 96q51 16 103.5 24.5t107.5 8.5q130 0 206.5 -51t76.5 -136
q0 -80 -58.5 -133t-166.5 -72z" />
    <glyph glyph-name="questiondown" unicode="&#xbf;" horiz-adv-x="1053" 
d="M578 1036h163q-16 -107 -59 -186t-150 -174q-20 -18 -58 -51q-206 -180 -206 -295q0 -93 71 -147t193 -54q63 0 125 14t123 41l-32 -161q-76 -23 -144 -34.5t-131 -11.5q-179 0 -286 89t-107 235q0 97 56 186t200 211q126 108 176.5 181.5t65.5 156.5zM637 1421h215
l-47 -211h-211z" />
    <glyph glyph-name="Agrave" unicode="&#xc0;" horiz-adv-x="1397" 
d="M852 1260l-434 -736h555zM764 1421h240l262 -1421h-201l-64 362h-673l-222 -362h-215zM602 1897h180l209 -355h-105z" />
    <glyph glyph-name="Aacute" unicode="&#xc1;" horiz-adv-x="1397" 
d="M852 1260l-434 -736h555zM764 1421h240l262 -1421h-201l-64 362h-673l-222 -362h-215zM956 1897h191l-324 -355h-109z" />
    <glyph glyph-name="Acircumflex" unicode="&#xc2;" horiz-adv-x="1397" 
d="M852 1260l-434 -736h555zM764 1421h240l262 -1421h-201l-64 362h-673l-222 -362h-215zM831 1897h166l145 -355h-98l-139 236l-232 -236h-108z" />
    <glyph glyph-name="Atilde" unicode="&#xc3;" horiz-adv-x="1397" 
d="M852 1260l-434 -736h555zM764 1421h240l262 -1421h-201l-64 362h-673l-222 -362h-215zM1093 1823h90q-34 -108 -81.5 -154.5t-120.5 -46.5q-22 0 -39 2.5t-34 8.5l-85 28q-11 4 -23 6t-26 2q-34 0 -58.5 -20.5t-35.5 -59.5h-91q35 109 82 157t119 48q15 0 30.5 -2.5
t35.5 -7.5l86 -27q22 -6 33.5 -8t21.5 -2q36 0 59.5 18.5t36.5 57.5z" />
    <glyph glyph-name="Adieresis" unicode="&#xc4;" horiz-adv-x="1397" 
d="M852 1260l-434 -736h555zM764 1421h240l262 -1421h-201l-64 362h-673l-222 -362h-215zM989 1804h170l-41 -192h-170zM655 1804h172l-41 -192h-172z" />
    <glyph glyph-name="Aring" unicode="&#xc5;" horiz-adv-x="1397" 
d="M852 1260l-434 -736h555zM764 1421h240l262 -1421h-201l-64 362h-673l-222 -362h-215zM895 1892q-62 0 -103.5 -42t-41.5 -105q0 -62 41.5 -104t103.5 -42q61 0 103 42t42 104q0 61 -42.5 104t-102.5 43zM895 1995q104 0 177 -72.5t73 -175.5q0 -105 -73 -177.5
t-177 -72.5t-177 72.5t-73 177.5q0 104 72.5 176t177.5 72z" />
    <glyph glyph-name="AE" unicode="&#xc6;" horiz-adv-x="1878" 
d="M467 520h473l107 760h-50zM893 1421h995l-35 -157h-610l-59 -441h545l-33 -157h-537l-74 -508h562l-33 -158h-754l51 360h-546l-252 -360h-219z" />
    <glyph glyph-name="Ccedilla" unicode="&#xc7;" horiz-adv-x="1274" 
d="M1337 1372l-51 -170q-87 43 -175.5 63.5t-184.5 20.5q-141 0 -264.5 -55t-210.5 -156q-73 -83 -115.5 -203.5t-42.5 -242.5q0 -217 131 -350.5t346 -133.5q65 0 140 16t165 48l-18 -186q-83 -24 -162.5 -36t-157.5 -12q-299 0 -476 175.5t-177 470.5q0 186 76.5 352
t218.5 289q101 86 245.5 135t303.5 49q97 0 199 -18.5t210 -55.5zM634 0h78l-34 -104h14q103 0 158 -42t55 -120q0 -95 -65 -150t-177 -55q-59 0 -125 12t-147 37l33 92q63 -20 118.5 -30.5t100.5 -10.5q59 0 94 26t35 69q0 48 -37 68t-129 20h-35z" />
    <glyph glyph-name="Egrave" unicode="&#xc8;" horiz-adv-x="1071" 
d="M324 1421h780l-35 -157h-577l-95 -441h547l-33 -157h-546l-109 -508h606l-33 -158h-806zM441 1897h180l209 -355h-105z" />
    <glyph glyph-name="Eacute" unicode="&#xc9;" horiz-adv-x="1071" 
d="M324 1421h780l-35 -157h-577l-95 -441h547l-33 -157h-546l-109 -508h606l-33 -158h-806zM795 1897h191l-324 -355h-109z" />
    <glyph glyph-name="Ecircumflex" unicode="&#xca;" horiz-adv-x="1071" 
d="M324 1421h780l-35 -157h-577l-95 -441h547l-33 -157h-546l-109 -508h606l-33 -158h-806zM670 1897h166l145 -355h-98l-139 236l-232 -236h-108z" />
    <glyph glyph-name="Edieresis" unicode="&#xcb;" horiz-adv-x="1071" 
d="M324 1421h780l-35 -157h-577l-95 -441h547l-33 -157h-546l-109 -508h606l-33 -158h-806zM828 1804h170l-41 -192h-170zM494 1804h172l-41 -192h-172z" />
    <glyph glyph-name="Igrave" unicode="&#xcc;" horiz-adv-x="551" 
d="M324 1421h198l-303 -1421h-196zM180 1897h180l209 -355h-105z" />
    <glyph glyph-name="Iacute" unicode="&#xcd;" horiz-adv-x="551" 
d="M324 1421h198l-303 -1421h-196zM534 1897h191l-324 -355h-109z" />
    <glyph glyph-name="Icircumflex" unicode="&#xce;" horiz-adv-x="551" 
d="M324 1421h198l-303 -1421h-196zM409 1897h166l145 -355h-98l-139 236l-232 -236h-108z" />
    <glyph glyph-name="Idieresis" unicode="&#xcf;" horiz-adv-x="551" 
d="M324 1421h198l-303 -1421h-196zM567 1804h170l-41 -192h-170zM233 1804h172l-41 -192h-172z" />
    <glyph glyph-name="Eth" unicode="&#xd0;" horiz-adv-x="1421" 
d="M504 1262l-94 -459h319l-29 -131h-319l-107 -506h170q150 0 257 29.5t184 91.5q109 87 175 236t66 308q0 209 -115.5 320t-332.5 111h-174zM334 1421h336q324 0 494.5 -153.5t170.5 -446.5q0 -214 -94 -399.5t-254 -286.5q-111 -71 -241 -103t-312 -32h-401l143 672h-184
l26 131h185z" />
    <glyph glyph-name="Ntilde" unicode="&#xd1;" horiz-adv-x="1462" 
d="M326 1421h249l422 -1192l248 1192h191l-303 -1421h-250l-418 1198l-252 -1198h-188zM1126 1823h90q-34 -108 -81.5 -154.5t-120.5 -46.5q-22 0 -39 2.5t-34 8.5l-85 28q-11 4 -23 6t-26 2q-34 0 -58.5 -20.5t-35.5 -59.5h-91q35 109 82 157t119 48q15 0 30.5 -2.5
t35.5 -7.5l86 -27q22 -6 33.5 -8t21.5 -2q36 0 59.5 18.5t36.5 57.5z" />
    <glyph glyph-name="Ograve" unicode="&#xd2;" horiz-adv-x="1509" 
d="M1210 868q0 200 -98.5 314t-269.5 114q-101 0 -196.5 -49.5t-168.5 -140.5q-85 -107 -132.5 -249.5t-47.5 -291.5q0 -200 98.5 -316t268.5 -116q114 0 209.5 54t179.5 165q73 99 115 236.5t42 279.5zM852 1448q264 0 415.5 -154.5t151.5 -425.5q0 -203 -69.5 -382
t-198.5 -308q-100 -99 -228 -151t-276 -52q-255 0 -406 164.5t-151 442.5q0 183 68 355.5t190 297.5q100 103 230.5 158t273.5 55zM660 1897h180l209 -355h-105z" />
    <glyph glyph-name="Oacute" unicode="&#xd3;" horiz-adv-x="1509" 
d="M1210 868q0 200 -98.5 314t-269.5 114q-101 0 -196.5 -49.5t-168.5 -140.5q-85 -107 -132.5 -249.5t-47.5 -291.5q0 -200 98.5 -316t268.5 -116q114 0 209.5 54t179.5 165q73 99 115 236.5t42 279.5zM852 1448q264 0 415.5 -154.5t151.5 -425.5q0 -203 -69.5 -382
t-198.5 -308q-100 -99 -228 -151t-276 -52q-255 0 -406 164.5t-151 442.5q0 183 68 355.5t190 297.5q100 103 230.5 158t273.5 55zM1014 1897h191l-324 -355h-109z" />
    <glyph glyph-name="Ocircumflex" unicode="&#xd4;" horiz-adv-x="1509" 
d="M1210 868q0 200 -98.5 314t-269.5 114q-101 0 -196.5 -49.5t-168.5 -140.5q-85 -107 -132.5 -249.5t-47.5 -291.5q0 -200 98.5 -316t268.5 -116q114 0 209.5 54t179.5 165q73 99 115 236.5t42 279.5zM852 1448q264 0 415.5 -154.5t151.5 -425.5q0 -203 -69.5 -382
t-198.5 -308q-100 -99 -228 -151t-276 -52q-255 0 -406 164.5t-151 442.5q0 183 68 355.5t190 297.5q100 103 230.5 158t273.5 55zM889 1897h166l145 -355h-98l-139 236l-232 -236h-108z" />
    <glyph glyph-name="Otilde" unicode="&#xd5;" horiz-adv-x="1509" 
d="M1210 868q0 200 -98.5 314t-269.5 114q-101 0 -196.5 -49.5t-168.5 -140.5q-85 -107 -132.5 -249.5t-47.5 -291.5q0 -200 98.5 -316t268.5 -116q114 0 209.5 54t179.5 165q73 99 115 236.5t42 279.5zM852 1448q264 0 415.5 -154.5t151.5 -425.5q0 -203 -69.5 -382
t-198.5 -308q-100 -99 -228 -151t-276 -52q-255 0 -406 164.5t-151 442.5q0 183 68 355.5t190 297.5q100 103 230.5 158t273.5 55zM1151 1823h90q-34 -108 -81.5 -154.5t-120.5 -46.5q-22 0 -39 2.5t-34 8.5l-85 28q-11 4 -23 6t-26 2q-34 0 -58.5 -20.5t-35.5 -59.5h-91
q35 109 82 157t119 48q15 0 30.5 -2.5t35.5 -7.5l86 -27q22 -6 33.5 -8t21.5 -2q36 0 59.5 18.5t36.5 57.5z" />
    <glyph glyph-name="Odieresis" unicode="&#xd6;" horiz-adv-x="1509" 
d="M1210 868q0 200 -98.5 314t-269.5 114q-101 0 -196.5 -49.5t-168.5 -140.5q-85 -107 -132.5 -249.5t-47.5 -291.5q0 -200 98.5 -316t268.5 -116q114 0 209.5 54t179.5 165q73 99 115 236.5t42 279.5zM852 1448q264 0 415.5 -154.5t151.5 -425.5q0 -203 -69.5 -382
t-198.5 -308q-100 -99 -228 -151t-276 -52q-255 0 -406 164.5t-151 442.5q0 183 68 355.5t190 297.5q100 103 230.5 158t273.5 55zM1047 1804h170l-41 -192h-170zM713 1804h172l-41 -192h-172z" />
    <glyph glyph-name="multiply" unicode="&#xd7;" horiz-adv-x="1706" 
d="M860 709l469 469l98 -99l-469 -469l469 -469l-98 -96l-469 467l-469 -467l-98 96l469 469l-469 469l98 99z" />
    <glyph glyph-name="Oslash" unicode="&#xd8;" horiz-adv-x="1509" 
d="M1118 1165l-686 -958q48 -38 103.5 -57t121.5 -19q118 0 216 54t182 165q73 97 115 233t42 277q0 107 -23.5 183.5t-70.5 121.5zM1024 1253q-35 23 -74.5 34t-85.5 11q-119 0 -216 -47t-173 -143q-86 -108 -133 -249.5t-47 -291.5q0 -73 13.5 -136.5t41.5 -121.5z
M1276 1599l98 -75l-139 -197q93 -82 138.5 -195.5t45.5 -261.5q0 -208 -72.5 -390t-207.5 -312q-100 -95 -224.5 -144t-267.5 -49q-94 0 -172 22t-145 66l-174 -235l-99 80l174 237q-70 87 -105.5 196t-35.5 241q0 190 72 365t203 302q101 98 229 149.5t270 51.5
q71 0 135.5 -14t124.5 -41z" />
    <glyph glyph-name="Ugrave" unicode="&#xd9;" horiz-adv-x="1421" 
d="M315 1421h203l-178 -833q-8 -37 -12 -74t-4 -74q0 -140 79.5 -225.5t210.5 -85.5q160 0 259 114t153 363l176 815h199l-174 -827q-67 -318 -221.5 -470.5t-411.5 -152.5q-210 0 -340.5 121.5t-130.5 315.5q0 53 7.5 114t25.5 148zM615 1897h180l209 -355h-105z" />
    <glyph glyph-name="Uacute" unicode="&#xda;" horiz-adv-x="1421" 
d="M315 1421h203l-178 -833q-8 -37 -12 -74t-4 -74q0 -140 79.5 -225.5t210.5 -85.5q160 0 259 114t153 363l176 815h199l-174 -827q-67 -318 -221.5 -470.5t-411.5 -152.5q-210 0 -340.5 121.5t-130.5 315.5q0 53 7.5 114t25.5 148zM969 1897h191l-324 -355h-109z" />
    <glyph glyph-name="Ucircumflex" unicode="&#xdb;" horiz-adv-x="1421" 
d="M315 1421h203l-178 -833q-8 -37 -12 -74t-4 -74q0 -140 79.5 -225.5t210.5 -85.5q160 0 259 114t153 363l176 815h199l-174 -827q-67 -318 -221.5 -470.5t-411.5 -152.5q-210 0 -340.5 121.5t-130.5 315.5q0 53 7.5 114t25.5 148zM844 1897h166l145 -355h-98l-139 236
l-232 -236h-108z" />
    <glyph glyph-name="Udieresis" unicode="&#xdc;" horiz-adv-x="1421" 
d="M315 1421h203l-178 -833q-8 -37 -12 -74t-4 -74q0 -140 79.5 -225.5t210.5 -85.5q160 0 259 114t153 363l176 815h199l-174 -827q-67 -318 -221.5 -470.5t-411.5 -152.5q-210 0 -340.5 121.5t-130.5 315.5q0 53 7.5 114t25.5 148zM1002 1804h170l-41 -192h-170zM668 1804
h172l-41 -192h-172z" />
    <glyph glyph-name="Yacute" unicode="&#xdd;" horiz-adv-x="1284" 
d="M150 1421h219l264 -669l547 669h235l-706 -835l-121 -586h-203l125 592zM901 1897h191l-324 -355h-109z" />
    <glyph glyph-name="Thorn" unicode="&#xde;" horiz-adv-x="1094" 
d="M414 973l-109 -510q34 -3 55 -3.5t41 -0.5q223 0 326.5 72.5t103.5 226.5q0 107 -70.5 161t-213.5 54h-133zM307 1421h199l-60 -293h140q216 0 333 -96t117 -272q0 -221 -163 -344t-459 -123q-20 0 -55.5 1.5t-88.5 4.5l-61 -299h-203z" />
    <glyph glyph-name="germandbls" unicode="&#xdf;" horiz-adv-x="1190" 
d="M786 811q134 -32 201.5 -112t67.5 -207q0 -221 -138 -362.5t-356 -141.5q-62 0 -120 8.5t-113 26.5l43 151q47 -17 89.5 -26t80.5 -9q140 0 226.5 94t86.5 246q0 124 -68 188t-198 64q-19 0 -29 -0.5t-18 -1.5l32 151q172 4 267.5 86t95.5 226q0 96 -55 151.5t-150 55.5
q-120 0 -193.5 -86.5t-113.5 -276.5l-219 -1036h-197l230 1079q51 240 176.5 352.5t339.5 112.5q170 0 271 -95.5t101 -256.5q0 -145 -90.5 -247t-249.5 -134z" />
    <glyph glyph-name="agrave" unicode="&#xe0;" horiz-adv-x="1079" 
d="M725 516q-19 1 -41.5 1.5t-65.5 0.5q-219 0 -321 -56.5t-102 -176.5q0 -74 50 -119t132 -45q139 0 231.5 104.5t116.5 290.5zM922 584l-64 -312q-21 -102 -31 -160t-16 -112h-164l23 162q-73 -92 -158 -136t-186 -44q-145 0 -234.5 80.5t-89.5 209.5q0 177 149 275
t420 98q30 0 71 -2.5t107 -7.5q3 17 5 35t2 35q0 102 -58 156t-168 54q-62 0 -137.5 -18t-169.5 -55l23 162q91 27 171 41t150 14q172 0 271.5 -85.5t99.5 -232.5q0 -35 -4 -73.5t-12 -83.5zM361 1520h180l209 -355h-105z" />
    <glyph glyph-name="aacute" unicode="&#xe1;" horiz-adv-x="1079" 
d="M725 516q-19 1 -41.5 1.5t-65.5 0.5q-219 0 -321 -56.5t-102 -176.5q0 -74 50 -119t132 -45q139 0 231.5 104.5t116.5 290.5zM922 584l-64 -312q-21 -102 -31 -160t-16 -112h-164l23 162q-73 -92 -158 -136t-186 -44q-145 0 -234.5 80.5t-89.5 209.5q0 177 149 275
t420 98q30 0 71 -2.5t107 -7.5q3 17 5 35t2 35q0 102 -58 156t-168 54q-62 0 -137.5 -18t-169.5 -55l23 162q91 27 171 41t150 14q172 0 271.5 -85.5t99.5 -232.5q0 -35 -4 -73.5t-12 -83.5zM715 1520h191l-324 -355h-109z" />
    <glyph glyph-name="acircumflex" unicode="&#xe2;" horiz-adv-x="1079" 
d="M725 516q-19 1 -41.5 1.5t-65.5 0.5q-219 0 -321 -56.5t-102 -176.5q0 -74 50 -119t132 -45q139 0 231.5 104.5t116.5 290.5zM922 584l-64 -312q-21 -102 -31 -160t-16 -112h-164l23 162q-73 -92 -158 -136t-186 -44q-145 0 -234.5 80.5t-89.5 209.5q0 177 149 275
t420 98q30 0 71 -2.5t107 -7.5q3 17 5 35t2 35q0 102 -58 156t-168 54q-62 0 -137.5 -18t-169.5 -55l23 162q91 27 171 41t150 14q172 0 271.5 -85.5t99.5 -232.5q0 -35 -4 -73.5t-12 -83.5zM590 1520h166l145 -355h-98l-139 236l-232 -236h-108z" />
    <glyph glyph-name="atilde" unicode="&#xe3;" horiz-adv-x="1079" 
d="M725 516q-19 1 -41.5 1.5t-65.5 0.5q-219 0 -321 -56.5t-102 -176.5q0 -74 50 -119t132 -45q139 0 231.5 104.5t116.5 290.5zM922 584l-64 -312q-21 -102 -31 -160t-16 -112h-164l23 162q-73 -92 -158 -136t-186 -44q-145 0 -234.5 80.5t-89.5 209.5q0 177 149 275
t420 98q30 0 71 -2.5t107 -7.5q3 17 5 35t2 35q0 102 -58 156t-168 54q-62 0 -137.5 -18t-169.5 -55l23 162q91 27 171 41t150 14q172 0 271.5 -85.5t99.5 -232.5q0 -35 -4 -73.5t-12 -83.5zM852 1446h90q-34 -108 -81.5 -154.5t-120.5 -46.5q-22 0 -39 2.5t-34 8.5l-85 28
q-11 4 -23 6t-26 2q-34 0 -58.5 -20.5t-35.5 -59.5h-91q35 109 82 157t119 48q15 0 30.5 -2.5t35.5 -7.5l86 -27q22 -6 33.5 -8t21.5 -2q36 0 59.5 18.5t36.5 57.5z" />
    <glyph glyph-name="adieresis" unicode="&#xe4;" horiz-adv-x="1079" 
d="M725 516q-19 1 -41.5 1.5t-65.5 0.5q-219 0 -321 -56.5t-102 -176.5q0 -74 50 -119t132 -45q139 0 231.5 104.5t116.5 290.5zM922 584l-64 -312q-21 -102 -31 -160t-16 -112h-164l23 162q-73 -92 -158 -136t-186 -44q-145 0 -234.5 80.5t-89.5 209.5q0 177 149 275
t420 98q30 0 71 -2.5t107 -7.5q3 17 5 35t2 35q0 102 -58 156t-168 54q-62 0 -137.5 -18t-169.5 -55l23 162q91 27 171 41t150 14q172 0 271.5 -85.5t99.5 -232.5q0 -35 -4 -73.5t-12 -83.5zM748 1427h170l-41 -192h-170zM414 1427h172l-41 -192h-172z" />
    <glyph glyph-name="aring" unicode="&#xe5;" horiz-adv-x="1079" 
d="M725 516q-19 1 -41.5 1.5t-65.5 0.5q-219 0 -321 -56.5t-102 -176.5q0 -74 50.5 -119t133.5 -45q137 0 229.5 105t116.5 290zM922 584l-64 -312q-21 -102 -31 -160t-16 -112h-164l23 162q-73 -92 -158 -136t-186 -44q-145 0 -234.5 80.5t-89.5 209.5q0 177 149 275
t420 98q30 0 71 -2.5t107 -7.5q3 17 5 35t2 35q0 102 -58 156t-168 54q-62 0 -137.5 -18t-169.5 -55l23 162q91 27 171 41t150 14q172 0 271.5 -85.5t99.5 -232.5q0 -35 -4 -73.5t-12 -83.5zM627 1540q-62 0 -105 -42t-43 -103q0 -63 42 -105.5t104 -42.5q61 0 104 42.5
t43 103.5t-42 104t-103 43zM625 1642q105 0 177 -71.5t72 -175.5q0 -105 -72.5 -177.5t-176.5 -72.5t-176 72.5t-72 177.5q0 104 71.5 175.5t176.5 71.5z" />
    <glyph glyph-name="ae" unicode="&#xe6;" horiz-adv-x="1700" 
d="M724 506q-17 1 -36 1.5t-55 0.5q-204 0 -308 -57t-104 -168q0 -72 49.5 -117t128.5 -45q125 0 209.5 100t115.5 285zM1434 621q2 14 3 29t1 38q0 107 -59.5 172.5t-155.5 65.5q-106 0 -188 -83t-113 -222h512zM889 889q66 85 154 126.5t200 41.5q158 0 256 -105.5
t98 -275.5q0 -37 -3.5 -82t-12.5 -105h-688q-1 -9 -1.5 -20.5t-0.5 -34.5q0 -149 75.5 -229t215.5 -80q70 0 135 16.5t127 51.5l-12 -162q-76 -30 -150 -45t-147 -15q-139 0 -236 64.5t-141 185.5q-67 -119 -168.5 -179t-235.5 -60q-145 0 -235 80t-90 206q0 174 152 270.5
t429 96.5q34 0 68 -1.5t71 -4.5q4 18 5.5 35.5t1.5 33.5q0 102 -57.5 158.5t-159.5 56.5q-48 0 -115 -17t-166 -54l23 162q96 26 169.5 39.5t118.5 13.5q122 0 199.5 -41t120.5 -127z" />
    <glyph glyph-name="ccedilla" unicode="&#xe7;" horiz-adv-x="940" 
d="M948 999l-47 -155q-71 26 -132.5 38.5t-115.5 12.5q-176 0 -293.5 -121.5t-117.5 -302.5q0 -149 83 -239.5t222 -90.5q48 0 106 12t127 35l-22 -172q-66 -17 -133.5 -25.5t-139.5 -8.5q-201 0 -324.5 131.5t-123.5 345.5q0 122 46.5 235.5t131.5 196.5q84 82 194 121
t261 39q77 0 145.5 -13t132.5 -39zM352 0h78l-34 -104h14q103 0 158 -42t55 -120q0 -95 -65 -150t-177 -55q-59 0 -125 12t-147 37l33 92q63 -20 118.5 -30.5t100.5 -10.5q59 0 94 26t35 69q0 48 -37 68t-129 20h-35z" />
    <glyph glyph-name="egrave" unicode="&#xe8;" horiz-adv-x="1085" 
d="M963 467h-736q-1 -15 -1.5 -27t-0.5 -24q0 -141 80.5 -217t229.5 -76q74 0 145 17t141 53l-16 -162q-82 -30 -159.5 -45t-153.5 -15q-212 0 -333.5 124.5t-121.5 340.5q0 120 39 230.5t112 199.5q77 94 182 142.5t230 48.5q178 0 281.5 -108t103.5 -296q0 -44 -5.5 -90
t-16.5 -96zM807 603q3 18 4.5 35t1.5 34q0 118 -60.5 186t-164.5 68q-115 0 -208.5 -89.5t-127.5 -234.5zM404 1520h180l209 -355h-105z" />
    <glyph glyph-name="eacute" unicode="&#xe9;" horiz-adv-x="1085" 
d="M963 467h-736q-1 -15 -1.5 -27t-0.5 -24q0 -141 80.5 -217t229.5 -76q74 0 145 17t141 53l-16 -162q-82 -30 -159.5 -45t-153.5 -15q-212 0 -333.5 124.5t-121.5 340.5q0 120 39 230.5t112 199.5q77 94 182 142.5t230 48.5q178 0 281.5 -108t103.5 -296q0 -44 -5.5 -90
t-16.5 -96zM807 603q3 18 4.5 35t1.5 34q0 118 -60.5 186t-164.5 68q-115 0 -208.5 -89.5t-127.5 -234.5zM758 1520h191l-324 -355h-109z" />
    <glyph glyph-name="ecircumflex" unicode="&#xea;" horiz-adv-x="1085" 
d="M963 467h-736q-1 -15 -1.5 -27t-0.5 -24q0 -141 80.5 -217t229.5 -76q74 0 145 17t141 53l-16 -162q-82 -30 -159.5 -45t-153.5 -15q-212 0 -333.5 124.5t-121.5 340.5q0 120 39 230.5t112 199.5q77 94 182 142.5t230 48.5q178 0 281.5 -108t103.5 -296q0 -44 -5.5 -90
t-16.5 -96zM807 603q3 18 4.5 35t1.5 34q0 118 -60.5 186t-164.5 68q-115 0 -208.5 -89.5t-127.5 -234.5zM633 1520h166l145 -355h-98l-139 236l-232 -236h-108z" />
    <glyph glyph-name="edieresis" unicode="&#xeb;" horiz-adv-x="1085" 
d="M963 467h-736q-1 -15 -1.5 -27t-0.5 -24q0 -141 80.5 -217t229.5 -76q74 0 145 17t141 53l-16 -162q-82 -30 -159.5 -45t-153.5 -15q-212 0 -333.5 124.5t-121.5 340.5q0 120 39 230.5t112 199.5q77 94 182 142.5t230 48.5q178 0 281.5 -108t103.5 -296q0 -44 -5.5 -90
t-16.5 -96zM807 603q3 18 4.5 35t1.5 34q0 118 -60.5 186t-164.5 68q-115 0 -208.5 -89.5t-127.5 -234.5zM791 1427h170l-41 -192h-170zM457 1427h172l-41 -192h-172z" />
    <glyph glyph-name="igrave" unicode="&#xec;" horiz-adv-x="512" 
d="M248 1032h188l-219 -1032h-188zM117 1520h180l209 -355h-105z" />
    <glyph glyph-name="iacute" unicode="&#xed;" horiz-adv-x="512" 
d="M248 1032h188l-219 -1032h-188zM471 1520h191l-324 -355h-109z" />
    <glyph glyph-name="icircumflex" unicode="&#xee;" horiz-adv-x="512" 
d="M248 1032h188l-219 -1032h-188zM346 1520h166l145 -355h-98l-139 236l-232 -236h-108z" />
    <glyph glyph-name="idieresis" unicode="&#xef;" horiz-adv-x="512" 
d="M248 1032h188l-219 -1032h-188zM504 1427h170l-41 -192h-170zM170 1427h172l-41 -192h-172z" />
    <glyph glyph-name="eth" unicode="&#xf0;" horiz-adv-x="1200" 
d="M881 604q0 140 -72 222.5t-193 82.5q-57 0 -111.5 -21.5t-101.5 -64.5q-76 -70 -118.5 -171t-42.5 -214q0 -141 73.5 -227t194.5 -86q154 0 262.5 139t108.5 340zM391 1532h223l3 -3q66 -70 102 -112l248 76l39 -102l-209 -66q146 -187 216 -360t70 -344
q0 -285 -165.5 -465.5t-428.5 -180.5q-199 0 -317.5 119.5t-118.5 321.5q0 138 52.5 263.5t150.5 219.5q71 69 165.5 105t205.5 36q48 0 91.5 -9.5t84.5 -29.5q-42 79 -85 147t-87 126l-295 -92l-35 106l252 80q-40 45 -80 85.5t-82 78.5z" />
    <glyph glyph-name="ntilde" unicode="&#xf1;" horiz-adv-x="1202" 
d="M1032 528l-110 -528h-197l121 564q7 32 10.5 64t3.5 64q0 93 -50 145t-138 52q-128 0 -221 -100.5t-132 -282.5l-106 -506h-195l222 1038h176l-39 -184q73 98 165 148.5t195 50.5q146 0 233 -90t87 -242q0 -38 -6 -86t-19 -107zM954 1446h90q-34 -108 -81.5 -154.5
t-120.5 -46.5q-22 0 -39 2.5t-34 8.5l-85 28q-11 4 -23 6t-26 2q-34 0 -58.5 -20.5t-35.5 -59.5h-91q35 109 82 157t119 48q15 0 30.5 -2.5t35.5 -7.5l86 -27q22 -6 33.5 -8t21.5 -2q36 0 59.5 18.5t36.5 57.5z" />
    <glyph glyph-name="ograve" unicode="&#xf2;" horiz-adv-x="1200" 
d="M881 604q0 140 -72 222.5t-193 82.5q-57 0 -111.5 -21.5t-101.5 -64.5q-75 -69 -117 -170.5t-42 -214.5q0 -143 73 -228t195 -85q153 0 261 138.5t108 340.5zM629 1055q212 0 332 -122t120 -337q0 -129 -44.5 -244t-129.5 -205q-80 -85 -186 -129.5t-227 -44.5
q-206 0 -328.5 124t-122.5 333q0 131 42 242t130 211q69 78 181 125t233 47zM461 1520h180l209 -355h-105z" />
    <glyph glyph-name="oacute" unicode="&#xf3;" horiz-adv-x="1200" 
d="M881 604q0 140 -72 222.5t-193 82.5q-57 0 -111.5 -21.5t-101.5 -64.5q-75 -69 -117 -170.5t-42 -214.5q0 -143 73 -228t195 -85q153 0 261 138.5t108 340.5zM629 1055q212 0 332 -122t120 -337q0 -129 -44.5 -244t-129.5 -205q-80 -85 -186 -129.5t-227 -44.5
q-206 0 -328.5 124t-122.5 333q0 131 42 242t130 211q69 78 181 125t233 47zM815 1520h191l-324 -355h-109z" />
    <glyph glyph-name="ocircumflex" unicode="&#xf4;" horiz-adv-x="1200" 
d="M881 604q0 140 -72 222.5t-193 82.5q-57 0 -111.5 -21.5t-101.5 -64.5q-75 -69 -117 -170.5t-42 -214.5q0 -143 73 -228t195 -85q153 0 261 138.5t108 340.5zM629 1055q212 0 332 -122t120 -337q0 -129 -44.5 -244t-129.5 -205q-80 -85 -186 -129.5t-227 -44.5
q-206 0 -328.5 124t-122.5 333q0 131 42 242t130 211q69 78 181 125t233 47zM690 1520h166l145 -355h-98l-139 236l-232 -236h-108z" />
    <glyph glyph-name="otilde" unicode="&#xf5;" horiz-adv-x="1200" 
d="M881 604q0 140 -72 222.5t-193 82.5q-57 0 -111.5 -21.5t-101.5 -64.5q-75 -69 -117 -170.5t-42 -214.5q0 -143 73 -228t195 -85q153 0 261 138.5t108 340.5zM629 1055q212 0 332 -122t120 -337q0 -129 -44.5 -244t-129.5 -205q-80 -85 -186 -129.5t-227 -44.5
q-206 0 -328.5 124t-122.5 333q0 131 42 242t130 211q69 78 181 125t233 47zM952 1446h90q-34 -108 -81.5 -154.5t-120.5 -46.5q-22 0 -39 2.5t-34 8.5l-85 28q-11 4 -23 6t-26 2q-34 0 -58.5 -20.5t-35.5 -59.5h-91q35 109 82 157t119 48q15 0 30.5 -2.5t35.5 -7.5l86 -27
q22 -6 33.5 -8t21.5 -2q36 0 59.5 18.5t36.5 57.5z" />
    <glyph glyph-name="odieresis" unicode="&#xf6;" horiz-adv-x="1200" 
d="M881 604q0 140 -72 222.5t-193 82.5q-57 0 -111.5 -21.5t-101.5 -64.5q-75 -69 -117 -170.5t-42 -214.5q0 -143 73 -228t195 -85q153 0 261 138.5t108 340.5zM629 1055q212 0 332 -122t120 -337q0 -129 -44.5 -244t-129.5 -205q-80 -85 -186 -129.5t-227 -44.5
q-206 0 -328.5 124t-122.5 333q0 131 42 242t130 211q69 78 181 125t233 47zM848 1427h170l-41 -192h-170zM514 1427h172l-41 -192h-172z" />
    <glyph glyph-name="divide" unicode="&#xf7;" horiz-adv-x="1706" 
d="M854 367q51 0 88 -37t37 -88q0 -52 -36.5 -88.5t-88.5 -36.5q-53 0 -89 36t-36 89q0 51 37 88t88 37zM1452 680v-139h-1198v139h1198zM854 1106q51 0 88 -37.5t37 -89.5q0 -51 -36.5 -88t-88.5 -37t-88.5 36.5t-36.5 88.5t37 89.5t88 37.5z" />
    <glyph glyph-name="oslash" unicode="&#xf8;" horiz-adv-x="1200" 
d="M842 805l-482 -651q31 -22 67 -32.5t77 -10.5q166 0 279.5 143t113.5 354q0 53 -13.5 101.5t-41.5 95.5zM768 879q-31 20 -66 30.5t-71 10.5q-170 0 -286 -137.5t-116 -338.5q0 -66 14.5 -120.5t43.5 -98.5zM975 1171l80 -63l-115 -162q73 -65 107 -152.5t34 -207.5
q0 -124 -45.5 -238.5t-130.5 -204.5q-79 -83 -187.5 -125.5t-244.5 -42.5q-59 0 -109 12.5t-92 37.5l-127 -170l-82 65l119 158q-70 70 -105.5 157t-35.5 189q0 131 44 246t134 217q69 78 179 124t231 46q62 0 117.5 -13t107.5 -38z" />
    <glyph glyph-name="ugrave" unicode="&#xf9;" horiz-adv-x="1202" 
d="M211 1028h195l-121 -563q-7 -31 -11 -63.5t-4 -65.5q0 -93 50 -145t139 -52q127 0 220 101.5t132 283.5l107 504h196l-221 -1028h-178l39 174q-76 -98 -167 -148.5t-194 -50.5q-145 0 -231 90t-86 242q0 46 5.5 94t16.5 98zM410 1520h180l209 -355h-105z" />
    <glyph glyph-name="uacute" unicode="&#xfa;" horiz-adv-x="1202" 
d="M211 1028h195l-121 -563q-7 -31 -11 -63.5t-4 -65.5q0 -93 50 -145t139 -52q127 0 220 101.5t132 283.5l107 504h196l-221 -1028h-178l39 174q-76 -98 -167 -148.5t-194 -50.5q-145 0 -231 90t-86 242q0 46 5.5 94t16.5 98zM764 1520h191l-324 -355h-109z" />
    <glyph glyph-name="ucircumflex" unicode="&#xfb;" horiz-adv-x="1202" 
d="M211 1028h195l-121 -563q-7 -31 -11 -63.5t-4 -65.5q0 -93 50 -145t139 -52q127 0 220 101.5t132 283.5l107 504h196l-221 -1028h-178l39 174q-76 -98 -167 -148.5t-194 -50.5q-145 0 -231 90t-86 242q0 46 5.5 94t16.5 98zM639 1520h166l145 -355h-98l-139 236
l-232 -236h-108z" />
    <glyph glyph-name="udieresis" unicode="&#xfc;" horiz-adv-x="1202" 
d="M211 1028h195l-121 -563q-7 -31 -11 -63.5t-4 -65.5q0 -93 50 -145t139 -52q127 0 220 101.5t132 283.5l107 504h196l-221 -1028h-178l39 174q-76 -98 -167 -148.5t-194 -50.5q-145 0 -231 90t-86 242q0 46 5.5 94t16.5 98zM797 1427h170l-41 -192h-170zM463 1427h172
l-41 -192h-172z" />
    <glyph glyph-name="yacute" unicode="&#xfd;" horiz-adv-x="993" 
d="M82 1032h188l109 -854l446 854h207l-676 -1208q-83 -149 -167.5 -209.5t-200.5 -60.5q-37 0 -77 7t-87 21l47 150q27 -10 51 -14.5t45 -4.5q63 0 117 34.5t90 96.5l74 131zM713 1520h191l-324 -355h-109z" />
    <glyph glyph-name="thorn" unicode="&#xfe;" horiz-adv-x="1231" 
d="M915 623q0 129 -62 202.5t-171 73.5q-144 0 -252 -140.5t-108 -334.5q0 -131 67 -211t176 -80q54 0 103 20.5t90 59.5q72 69 114.5 179.5t42.5 230.5zM346 1530h195l-142 -653q69 86 158 132t188 46q176 0 273.5 -115t97.5 -322q0 -139 -48 -270t-132 -221
q-69 -73 -152 -111.5t-174 -38.5q-132 0 -217 54t-133 168l-133 -627h-195z" />
    <glyph glyph-name="ydieresis" unicode="&#xff;" horiz-adv-x="993" 
d="M82 1032h188l109 -854l446 854h207l-676 -1208q-83 -149 -167.5 -209.5t-200.5 -60.5q-37 0 -77 7t-87 21l47 150q27 -10 51 -14.5t45 -4.5q63 0 117 34.5t90 96.5l74 131zM746 1427h170l-41 -192h-170zM412 1427h172l-41 -192h-172z" />
    <glyph glyph-name="Cacute" unicode="&#x106;" horiz-adv-x="1274" 
d="M1337 1372l-51 -170q-87 43 -175.5 63.5t-184.5 20.5q-141 0 -264.5 -55t-210.5 -156q-73 -83 -115.5 -203.5t-42.5 -242.5q0 -217 131 -350.5t346 -133.5q65 0 140 16t165 48l-18 -186q-83 -24 -162.5 -36t-157.5 -12q-299 0 -476 175.5t-177 470.5q0 186 76.5 352
t218.5 289q101 86 245.5 135t303.5 49q97 0 199 -18.5t210 -55.5zM989 1897h191l-324 -355h-109z" />
    <glyph glyph-name="cacute" unicode="&#x107;" horiz-adv-x="940" 
d="M948 999l-47 -155q-71 26 -132.5 38.5t-115.5 12.5q-176 0 -293.5 -121.5t-117.5 -302.5q0 -149 83 -239.5t222 -90.5q48 0 106 12t127 35l-22 -172q-66 -17 -133.5 -25.5t-139.5 -8.5q-201 0 -324.5 131.5t-123.5 345.5q0 122 46.5 235.5t131.5 196.5q84 82 194 121
t261 39q77 0 145.5 -13t132.5 -39zM737 1520h191l-324 -355h-109z" />
    <glyph glyph-name="Ccaron" unicode="&#x10c;" horiz-adv-x="1274" 
d="M1337 1372l-51 -170q-87 43 -175.5 63.5t-184.5 20.5q-141 0 -264.5 -55t-210.5 -156q-73 -83 -115.5 -203.5t-42.5 -242.5q0 -217 131 -350.5t346 -133.5q65 0 140 16t165 48l-18 -186q-83 -24 -162.5 -36t-157.5 -12q-299 0 -476 175.5t-177 470.5q0 186 76.5 352
t218.5 289q101 86 245.5 135t303.5 49q97 0 199 -18.5t210 -55.5zM657 1897h97l141 -234l229 234h109l-266 -355h-164z" />
    <glyph glyph-name="ccaron" unicode="&#x10d;" horiz-adv-x="940" 
d="M948 999l-47 -155q-71 26 -132.5 38.5t-115.5 12.5q-176 0 -293.5 -121.5t-117.5 -302.5q0 -149 83 -239.5t222 -90.5q48 0 106 12t127 35l-22 -172q-66 -17 -133.5 -25.5t-139.5 -8.5q-201 0 -324.5 131.5t-123.5 345.5q0 122 46.5 235.5t131.5 196.5q84 82 194 121
t261 39q77 0 145.5 -13t132.5 -39zM405 1520h97l141 -234l229 234h109l-266 -355h-164z" />
    <glyph glyph-name="dcroat" unicode="&#x111;" horiz-adv-x="1202" 
d="M838 610q0 128 -68 206.5t-178 78.5q-145 0 -246.5 -144t-101.5 -354q0 -121 63.5 -194.5t167.5 -73.5q147 0 255 142t108 339zM1044 1530h189l-37 -189h174l-24 -110h-175l-256 -1231h-174l35 172q-73 -98 -163.5 -147.5t-196.5 -49.5q-174 0 -273.5 112.5t-99.5 309.5
q0 281 147.5 467.5t370.5 186.5q123 0 209 -56.5t129 -165.5l84 402h-319l24 110h320z" />
    <glyph glyph-name="Gbreve" unicode="&#x11e;" horiz-adv-x="1473" 
d="M1407 1372l-55 -172q-89 44 -177.5 65t-181.5 21q-310 0 -498 -179.5t-188 -473.5q0 -222 129 -358t340 -136q59 0 117.5 8.5t116.5 24.5l94 455h-318l37 157h514l-159 -743q-93 -32 -192 -48t-208 -16q-150 0 -256 29.5t-188 93.5q-116 90 -178 225t-62 300
q0 177 73 340t204 280q109 98 267.5 150.5t348.5 52.5q104 0 209 -19t211 -57zM671 1857l95 1v-17q0 -65 36.5 -98t110.5 -33q89 0 145.5 36t88.5 112h98q-42 -140 -127.5 -208.5t-218.5 -68.5q-112 0 -171 60t-59 174q0 17 0.5 26t1.5 16z" />
    <glyph glyph-name="gbreve" unicode="&#x11f;" horiz-adv-x="1202" 
d="M838 610q0 128 -68 206.5t-178 78.5q-144 0 -246 -143.5t-102 -354.5q0 -122 63 -195t168 -73q148 0 255.5 141t107.5 340zM940 1028h190l-217 -1046q-44 -214 -180.5 -321t-363.5 -107q-91 0 -183.5 19t-189.5 58l51 162q80 -44 158.5 -66t159.5 -22q180 0 279.5 114.5
t133.5 360.5q-73 -97 -164 -146.5t-198 -49.5q-174 0 -272.5 111.5t-98.5 307.5q0 146 45.5 275.5t128.5 220.5q68 74 153 113t179 39q132 0 217 -54.5t131 -167.5zM493 1480l95 1v-17q0 -65 36.5 -98t110.5 -33q89 0 145.5 36t88.5 112h98q-42 -140 -127.5 -208.5
t-218.5 -68.5q-112 0 -171 60t-59 174q0 17 0.5 26t1.5 16z" />
    <glyph glyph-name="Idotaccent" unicode="&#x130;" horiz-adv-x="551" 
d="M324 1421h198l-303 -1421h-196zM397 1809h180l-43 -201h-180z" />
    <glyph glyph-name="dotlessi" unicode="&#x131;" horiz-adv-x="512" 
d="M248 1032h188l-219 -1032h-188z" />
    <glyph glyph-name="Lslash" unicode="&#x141;" horiz-adv-x="965" 
d="M334 1421h205l-111 -524l301 143l-33 -155l-301 -144l-123 -577h586l-33 -164h-792l135 639l-184 -88l32 158l185 88z" />
    <glyph glyph-name="lslash" unicode="&#x142;" horiz-adv-x="512" 
d="M348 1530h193l-135 -635l174 86l-29 -135l-174 -82l-160 -764h-192l143 680l-170 -86l27 135l172 80z" />
    <glyph glyph-name="OE" unicode="&#x152;" horiz-adv-x="1905" 
d="M1100 1257q-22 2 -62 6q-96 9 -114 9q-127 0 -222.5 -27.5t-164.5 -83.5q-113 -90 -176.5 -239t-63.5 -324q0 -210 115 -328t321 -118q32 0 66 3t71 9zM1165 1421h750l-33 -157h-579l-93 -441h547l-33 -157h-548l-107 -508h606l-35 -158h-727q-18 0 -99.5 -6t-145.5 -6
q-258 0 -415 171.5t-157 452.5q0 213 90 396t248 295q91 64 212 97.5t261 33.5q39 0 125 -6.5t133 -6.5z" />
    <glyph glyph-name="oe" unicode="&#x153;" horiz-adv-x="1898" 
d="M1774 473h-736q-1 -8 -1.5 -16.5t-0.5 -24.5q0 -147 80 -227t227 -80q77 0 148 16.5t141 51.5l-16 -162q-74 -28 -151 -42t-160 -14q-133 0 -229 48t-156 145q-94 -98 -198 -145.5t-226 -47.5q-210 0 -332.5 121t-122.5 328q0 131 43 244.5t131 214.5q72 81 183 126.5
t241 45.5q116 0 209 -48.5t158 -142.5q81 96 182.5 143.5t224.5 47.5q181 0 283 -108t102 -300q0 -43 -6 -87t-18 -87zM1620 602q2 13 3 27.5t1 42.5q0 118 -60.5 186t-164.5 68q-115 0 -208.5 -89.5t-127.5 -234.5h557zM881 604q0 140 -72 222.5t-193 82.5
q-57 0 -111.5 -21.5t-101.5 -64.5q-75 -69 -117 -170.5t-42 -214.5q0 -143 73 -228t195 -85q153 0 261 138.5t108 340.5z" />
    <glyph glyph-name="Scedilla" unicode="&#x15e;" horiz-adv-x="1073" 
d="M1057 1376l-56 -170q-65 40 -134 59t-146 19q-141 0 -223 -54t-82 -147q0 -61 33 -110t141 -125q202 -142 259.5 -227t57.5 -193q0 -192 -154 -321.5t-391 -129.5q-116 0 -209.5 20.5t-172.5 61.5l53 174q76 -45 157.5 -68.5t165.5 -23.5q148 0 238 65.5t90 170.5
q0 34 -9 65.5t-28 63.5q-38 63 -156 145q-42 29 -63 45q-120 91 -172.5 173t-52.5 178q0 180 139.5 288.5t376.5 108.5q93 0 177 -17t161 -51zM387 0h78l-34 -104h14q103 0 158 -42t55 -120q0 -95 -65 -150t-177 -55q-59 0 -125 12t-147 37l33 92q63 -20 118.5 -30.5
t100.5 -10.5q59 0 94 26t35 69q0 48 -37 68t-129 20h-35z" />
    <glyph glyph-name="scedilla" unicode="&#x15f;" horiz-adv-x="854" 
d="M811 1001l-51 -153q-58 32 -115.5 47.5t-116.5 15.5q-102 0 -162.5 -37t-60.5 -98q0 -73 156 -164q55 -32 86 -51q85 -54 125.5 -117t40.5 -141q0 -152 -117 -241t-320 -89q-86 0 -167.5 15t-157.5 45l51 162q61 -36 128 -53t142 -17q116 0 180 45t64 127q0 45 -30 81.5
t-138 102.5l-6 4q-225 138 -225 269q0 134 109 218.5t286 84.5q72 0 146 -14t153 -42zM278 0h78l-34 -104h14q103 0 158 -42t55 -120q0 -95 -65 -150t-177 -55q-59 0 -125 12t-147 37l33 92q63 -20 118.5 -30.5t100.5 -10.5q59 0 94 26t35 69q0 48 -37 68t-129 20h-35z" />
    <glyph glyph-name="Scaron" unicode="&#x160;" horiz-adv-x="1073" 
d="M1057 1376l-56 -170q-65 40 -134 59t-146 19q-141 0 -223 -54t-82 -147q0 -61 33 -110t141 -125q202 -142 259.5 -227t57.5 -193q0 -192 -154 -321.5t-391 -129.5q-116 0 -209.5 20.5t-172.5 61.5l53 174q76 -45 157.5 -68.5t165.5 -23.5q148 0 238 65.5t90 170.5
q0 34 -9 65.5t-28 63.5q-38 63 -156 145q-42 29 -63 45q-120 91 -172.5 173t-52.5 178q0 180 139.5 288.5t376.5 108.5q93 0 177 -17t161 -51zM463 1897h97l141 -234l229 234h109l-266 -355h-164z" />
    <glyph glyph-name="scaron" unicode="&#x161;" horiz-adv-x="854" 
d="M811 1001l-51 -153q-58 32 -115.5 47.5t-116.5 15.5q-102 0 -162.5 -37t-60.5 -98q0 -73 156 -164q55 -32 86 -51q85 -54 125.5 -117t40.5 -141q0 -152 -117 -241t-320 -89q-86 0 -167.5 15t-157.5 45l51 162q61 -36 128 -53t142 -17q116 0 180 45t64 127q0 45 -30 81.5
t-138 102.5l-6 4q-225 138 -225 269q0 134 109 218.5t286 84.5q72 0 146 -14t153 -42zM311 1520h97l141 -234l229 234h109l-266 -355h-164z" />
    <glyph glyph-name="Ydieresis" unicode="&#x178;" horiz-adv-x="1284" 
d="M150 1421h219l264 -669l547 669h235l-706 -835l-121 -586h-203l125 592zM934 1804h170l-41 -192h-170zM600 1804h172l-41 -192h-172z" />
    <glyph glyph-name="Zcaron" unicode="&#x17d;" horiz-adv-x="1085" 
d="M238 1421h942l-35 -164l-971 -1097h754l-37 -160h-979l37 176l950 1088h-696zM469 1897h97l141 -234l229 234h109l-266 -355h-164z" />
    <glyph glyph-name="zcaron" unicode="&#x17e;" horiz-adv-x="946" 
d="M180 1032h785l-35 -162l-729 -723h587l-30 -147h-824l33 160l731 725h-548zM356 1520h97l141 -234l229 234h109l-266 -355h-164z" />
    <glyph glyph-name="florin" unicode="&#x192;" horiz-adv-x="1176" 
d="M1063 1444l-31 -146q-36 18 -64 25.5t-55 7.5q-69 0 -109.5 -56t-72.5 -206l-39 -184h232v-148h-260l-127 -645q-56 -287 -149 -402.5t-257 -115.5q-29 0 -62.5 5.5t-69.5 16.5l32 152q35 -9 61 -13.5t43 -4.5q72 0 117.5 59t71.5 186l153 762h-235v148h262l47 229
q39 184 126.5 274.5t227.5 90.5q37 0 75.5 -8.5t82.5 -26.5z" />
    <glyph glyph-name="circumflex" unicode="&#x2c6;" 
d="M602 1520h166l145 -355h-98l-139 236l-232 -236h-108z" />
    <glyph glyph-name="caron" unicode="&#x2c7;" 
d="M395 1520h97l141 -234l229 234h109l-266 -355h-164z" />
    <glyph glyph-name="breve" unicode="&#x2d8;" 
d="M403 1480l95 1v-17q0 -65 36.5 -98t110.5 -33q89 0 145.5 36t88.5 112h98q-42 -140 -127.5 -208.5t-218.5 -68.5q-112 0 -171 60t-59 174q0 17 0.5 26t1.5 16z" />
    <glyph glyph-name="dotaccent" unicode="&#x2d9;" 
d="M590 1432h180l-43 -201h-180z" />
    <glyph glyph-name="ring" unicode="&#x2da;" 
d="M676 1542q-62 0 -105 -43t-43 -104q0 -62 42.5 -105t105.5 -43q61 0 102 43t41 105q0 61 -41.5 104t-101.5 43zM674 1645q104 0 177 -73t73 -177t-72.5 -176t-177.5 -72q-106 0 -177 71t-71 177q0 105 72 177.5t176 72.5z" />
    <glyph glyph-name="ogonek" unicode="&#x2db;" 
d="M360 0h74q-68 -59 -102.5 -116t-34.5 -111q0 -44 23.5 -63t76.5 -19h97l-27 -127h-61q-121 0 -176.5 40.5t-55.5 129.5q0 65 47 132t139 134z" />
    <glyph glyph-name="tilde" unicode="&#x2dc;" 
d="M864 1446h90q-34 -108 -81.5 -154.5t-120.5 -46.5q-22 0 -39 2.5t-34 8.5l-85 28q-11 4 -23 6t-26 2q-34 0 -58.5 -20.5t-35.5 -59.5h-91q35 109 82 157t119 48q15 0 30.5 -2.5t35.5 -7.5l86 -27q22 -6 33.5 -8t21.5 -2q36 0 59.5 18.5t36.5 57.5z" />
    <glyph glyph-name="hungarumlaut" unicode="&#x2dd;" 
d="M893 1520h170l-279 -355h-86zM608 1520h166l-250 -355h-84z" />
    <glyph glyph-name="Omega" unicode="&#x3a9;" horiz-adv-x="1565" 
d="M1487 178v-178h-600v178q177 97 276 263t99 368q0 240 -132 385t-348 145t-348.5 -145.5t-132.5 -384.5q0 -202 99.5 -368t277.5 -263v-178h-600v178h319q-158 139 -230.5 288t-72.5 333q0 318 191.5 515t496.5 197q303 0 495.5 -196.5t192.5 -505.5q0 -194 -71 -342
t-232 -289h320z" />
    <glyph glyph-name="pi" unicode="&#x3c0;" horiz-adv-x="1206" 
d="M1159 913h-182l-105 -487q-15 -74 -22.5 -120t-7.5 -68q0 -58 23.5 -82.5t78.5 -24.5q17 0 40 2.5t60 7.5l-30 -141q-30 -8 -57.5 -12t-53.5 -4q-118 0 -178.5 51t-60.5 151q0 46 10.5 118t44.5 233l80 376h-326l-194 -913h-181l195 913h-41q-54 0 -84 -32t-39 -101h-160
q28 166 99.5 228.5t236.5 62.5h889z" />
    <glyph glyph-name="endash" unicode="&#x2013;" 
d="M-16 618h1024l-25 -114h-1022z" />
    <glyph glyph-name="emdash" unicode="&#x2014;" horiz-adv-x="2048" 
d="M-16 618h2048l-25 -114h-2046z" />
    <glyph glyph-name="quoteleft" unicode="&#x2018;" horiz-adv-x="586" 
d="M446 1526h168l-211 -471h-217z" />
    <glyph glyph-name="quoteright" unicode="&#x2019;" horiz-adv-x="586" 
d="M422 1532h217l-260 -473h-166z" />
    <glyph glyph-name="quotesinglbase" unicode="&#x201a;" horiz-adv-x="586" 
d="M113 211h217l-260 -469h-166z" />
    <glyph glyph-name="quotedblleft" unicode="&#x201c;" horiz-adv-x="993" 
d="M852 1526h166l-209 -473h-217zM446 1526h166l-209 -473h-217z" />
    <glyph glyph-name="quotedblright" unicode="&#x201d;" horiz-adv-x="993" 
d="M831 1532h218l-263 -473h-165zM426 1532h217l-260 -473h-166z" />
    <glyph glyph-name="quotedblbase" unicode="&#x201e;" horiz-adv-x="993" 
d="M520 213h217l-260 -473h-168zM115 213h217l-260 -473h-166z" />
    <glyph glyph-name="dagger" unicode="&#x2020;" 
d="M561 1421h174l-88 -411h359l-31 -142h-357l-241 -1130h-174l241 1130h-350l29 142h350z" />
    <glyph glyph-name="daggerdbl" unicode="&#x2021;" 
d="M557 1421h174l-88 -426h350l-30 -141h-351l-116 -549h350l-29 -139h-350l-92 -428h-174l90 428h-348l30 139h349l116 549h-348l29 141h348z" />
    <glyph glyph-name="bullet" unicode="&#x2022;" horiz-adv-x="1208" 
d="M307 762q0 123 87 209t210 86q122 0 208.5 -86.5t86.5 -208.5t-87.5 -209.5t-209.5 -87.5q-123 0 -209 87t-86 210z" />
    <glyph glyph-name="ellipsis" unicode="&#x2026;" horiz-adv-x="2048" 
d="M145 213h209l-45 -213h-209zM827 213h209l-45 -213h-209zM1511 213h209l-45 -213h-209z" />
    <glyph glyph-name="perthousand" unicode="&#x2030;" horiz-adv-x="2583" 
d="M2189 623q-78 0 -124 -70.5t-46 -192.5q0 -120 46.5 -191t123.5 -71q79 0 123.5 69.5t44.5 192.5q0 124 -44.5 193.5t-123.5 69.5zM1382 623q-77 0 -122.5 -70.5t-45.5 -192.5q0 -121 45.5 -191.5t122.5 -70.5q79 0 124.5 70t45.5 192q0 123 -45.5 193t-124.5 70z
M2187 743q152 0 242 -104t90 -281q0 -175 -90.5 -280t-241.5 -105q-150 0 -239.5 104.5t-89.5 280.5q0 178 89 281.5t240 103.5zM1382 743q152 0 241 -103.5t89 -281.5q0 -176 -89.5 -280.5t-240.5 -104.5t-241 105t-90 280q0 177 90 281t241 104zM410 1327
q-78 0 -124 -70.5t-46 -191.5q0 -122 45.5 -192t124.5 -70q78 0 123 69.5t45 192.5q0 124 -44.5 193t-123.5 69zM1204 1448h137l-753 -1475h-139zM408 1448q151 0 241 -104t90 -281q0 -175 -90.5 -280t-240.5 -105q-151 0 -241.5 104.5t-90.5 280.5q0 177 90 281t242 104z
" />
    <glyph glyph-name="guilsinglleft" unicode="&#x2039;" horiz-adv-x="715" 
d="M451 934h196l-385 -418l305 -424h-180l-307 434z" />
    <glyph glyph-name="guilsinglright" unicode="&#x203a;" horiz-adv-x="715" 
d="M70 932h180l307 -432l-371 -408h-196l385 416z" />
    <glyph glyph-name="franc" unicode="&#x20a3;" horiz-adv-x="1708" 
d="M324 1421h747l-35 -157h-544l-95 -447h523l-35 -162h-523l-139 -655h-200zM1768 1040l-43 -178q-25 8 -50.5 12.5t-52.5 4.5q-132 0 -210.5 -86t-120.5 -281l-111 -512h-199l218 1032h176l-35 -164q76 99 153 144t168 45q22 0 49 -4.5t58 -12.5z" />
    <glyph glyph-name="trademark" unicode="&#x2122;" horiz-adv-x="1706" 
d="M963 1458l151 -385l141 385h150v-538h-98v444l-166 -444h-56l-174 444v-444h-98v538h150zM694 1458v-80h-172v-458h-108v458h-172v80h452z" />
    <glyph glyph-name="partialdiff" unicode="&#x2202;" horiz-adv-x="1059" 
d="M756 621q15 87 22.5 168.5t7.5 156.5q0 129 -36.5 194.5t-108.5 65.5q-55 0 -127 -58t-108 -58t-60 22t-24 53q0 62 72 111t173 49q180 0 287 -155t107 -418q0 -335 -144.5 -556t-357.5 -221q-152 0 -253.5 108t-101.5 271q0 198 110.5 326.5t272.5 128.5
q101 0 166 -45.5t103 -142.5zM707 494q0 116 -43.5 178.5t-122.5 62.5q-109 0 -179.5 -129t-70.5 -336q0 -116 43 -177.5t123 -61.5q109 0 179.5 130t70.5 333z" />
    <glyph glyph-name="Delta" unicode="&#x2206;" horiz-adv-x="1370" 
d="M1102 178l-418 1084l-418 -1084h836zM797 1473l579 -1473h-1382l579 1473h224z" />
    <glyph glyph-name="product" unicode="&#x220f;" horiz-adv-x="1550" 
d="M156 1473h1237v-1866h-240v1661h-758v-1661h-239v1866z" />
    <glyph glyph-name="summation" unicode="&#x2211;" horiz-adv-x="1380" 
d="M55 1473h1258v-193h-959l672 -717l-694 -764h1007v-192h-1314v149l725 801l-695 739v177z" />
    <glyph glyph-name="minus" unicode="&#x2212;" horiz-adv-x="1706" 
d="M1452 682v-141h-1198v141h1198z" />
    <glyph glyph-name="fraction" unicode="&#x2215;" horiz-adv-x="342" 
d="M479 1448h137l-753 -1475h-139z" />
    <glyph glyph-name="periodcentered" unicode="&#x2219;" horiz-adv-x="588" 
d="M295 825q49 0 82 -33t33 -81t-33.5 -80.5t-81.5 -32.5q-47 0 -80 33.5t-33 79.5q0 48 33 81t80 33z" />
    <glyph glyph-name="radical" unicode="&#x221a;" horiz-adv-x="1305" 
d="M1305 1661v-96h-115l-594 -1606h-66l-319 883l-125 -45l-25 80l283 98l256 -709l516 1395h189z" />
    <glyph glyph-name="infinity" unicode="&#x221e;" horiz-adv-x="1706" 
d="M915 559q50 -89 116.5 -133.5t150.5 -44.5q101 0 165 67.5t64 172.5q0 101 -59 168t-148 67q-81 0 -146.5 -66.5t-142.5 -230.5zM793 666q-49 88 -115.5 132t-151.5 44q-101 0 -165 -66.5t-64 -171.5q0 -101 59 -168t148 -67q81 0 146.5 66t142.5 231zM842 737
q68 138 147 203.5t176 65.5q133 0 227.5 -113t94.5 -279q0 -174 -83.5 -281.5t-217.5 -107.5q-95 0 -168.5 58.5t-153.5 199.5q-71 -136 -148.5 -199t-172.5 -63q-135 0 -228.5 112t-93.5 277q0 175 83.5 283t217.5 108q95 0 170 -61.5t150 -202.5z" />
    <glyph glyph-name="integral" unicode="&#x222b;" horiz-adv-x="1067" 
d="M311 -262q106 0 120 688q2 108 3 165q12 515 107 737t297 222q80 0 130 -42t50 -107q0 -54 -32 -85.5t-87 -31.5q-42 0 -70 19t-40 54q-6 15 -10.5 51t-20.5 36q-107 0 -121 -619q-4 -193 -8 -303q-17 -479 -111.5 -686t-290.5 -207q-79 0 -129.5 41.5t-50.5 106.5
q0 56 34 87.5t95 31.5q33 0 57 -14.5t39 -42.5q10 -17 15 -59t24 -42z" />
    <glyph glyph-name="approxequal" unicode="&#x2248;" horiz-adv-x="1706" 
d="M1530 430q-105 -73 -199.5 -107t-189.5 -34t-285 67.5t-293 67.5q-82 0 -171.5 -36t-213.5 -122v156q108 73 204 109t183 36q115 0 305 -68.5t273 -68.5q88 0 177 35.5t210 120.5v-156zM1530 799q-105 -73 -199.5 -107.5t-189.5 -34.5t-285 68t-293 68q-83 0 -171.5 -36
t-213.5 -122v156q106 72 202 107.5t185 35.5q116 0 305.5 -67.5t272.5 -67.5q87 0 175 34.5t212 120.5v-155z" />
    <glyph glyph-name="notequal" unicode="&#x2260;" horiz-adv-x="1706" 
d="M1313 1112l-187 -235h326v-136h-416l-205 -262h621v-135h-709l-249 -317l-105 84l184 233h-319v135h408l204 262h-612v136h702l252 317z" />
    <glyph glyph-name="lessequal" unicode="&#x2264;" horiz-adv-x="1706" 
d="M1446 162v-139h-1184v139h1184zM1444 1059l-936 -309l936 -306v-149l-1182 395v121l1182 395v-147z" />
    <glyph glyph-name="greaterequal" unicode="&#x2265;" horiz-adv-x="1706" 
d="M1446 162v-139h-1184v139h1184zM1446 811v-121l-1184 -395v149l938 306l-938 309v147z" />
    <glyph glyph-name="lozenge" unicode="&#x25ca;" horiz-adv-x="1012" 
d="M506 1409l-385 -817l385 -825l385 825zM506 1653l500 -1061l-500 -1069l-500 1069z" />
    <glyph glyph-name="apple" unicode="&#xf000;" horiz-adv-x="1618" 
d="M836 1216q-1 6 -1.5 14t-0.5 23q0 124 95 229.5t236 131.5q1 -10 1.5 -23t0.5 -39q0 -131 -103.5 -234.5t-203.5 -103.5h-8q-3 0 -7.5 1t-8.5 1zM1505 403q-114 -247 -205 -342.5t-204 -95.5q-50 0 -131.5 33t-122.5 33q-45 0 -131 -33t-127 -33q-64 0 -128.5 44
t-129.5 132q-102 140 -157.5 295.5t-55.5 300.5q0 219 125 356.5t323 137.5q68 0 155 -34t124 -34q34 0 121.5 35t152.5 35q110 0 198 -40t161 -124q-102 -65 -151.5 -145.5t-49.5 -182.5q0 -113 60 -200t173 -138z" />
    <glyph glyph-name="fi" unicode="&#xf001;" horiz-adv-x="1245" 
d="M1217 1282h-205l45 213h205zM969 1028h188l-219 -1028h-188zM891 1524l-42 -150q-31 9 -57.5 14t-46.5 5q-75 0 -124 -54t-72 -161l-35 -150h260l-31 -141h-258l-188 -887h-195l189 887h-219l30 141h220l40 195q34 159 133.5 242t256.5 83q28 0 63 -6t76 -18z" />
    <glyph glyph-name="fl" unicode="&#xf002;" horiz-adv-x="1245" 
d="M1083 1530h193l-322 -1530h-194zM891 1524l-42 -150q-31 9 -57.5 14t-46.5 5q-74 0 -123.5 -54.5t-72.5 -160.5l-35 -150h260l-31 -141h-258l-188 -887h-195l189 887h-219l30 141h220l40 195q34 159 133.5 242t256.5 83q28 0 63 -6t76 -18z" />
    </font>
</defs>
</svg>
